<svg width="103" height="51" viewBox="0 0 103 51" fill="none" xmlns="http://www.w3.org/2000/svg">
<g opacity="0.7">
<path d="M26.3195 33.0688V28.2771H27.5V22.3049L31.0764 18.7285H37.0139V28.2771H38.2292V33.0688H35.8333V30.673H28.7153V33.0688H26.3195ZM34.6528 28.2771V21.1243H32.257L29.8611 23.5202V28.3118H34.6528V28.2771Z" fill="#212121"/>
<path d="M40.5903 30.673L39.4097 29.4924V19.9438L40.5903 18.7285H48.9583L50.1389 19.9438V29.4924L48.9583 30.673H40.5903ZM47.7778 28.2771V21.1243H41.8403V28.2771H47.7778Z" fill="#212121"/>
<path d="M51.8402 30.673V18.7285H54.2361V23.5202H57.8125L60.2083 21.1243V18.7285H62.5694V22.3396L60.2083 24.7355L62.5694 27.1313V30.7077H60.2083V28.3118L57.8125 25.9507H54.2361V30.7077H51.8402V30.673Z" fill="#212121"/>
<path d="M63.9236 30.673V22.3396L67.4652 18.7285H74.618V30.673H72.2569V27.0966H66.3194V30.673H63.9236ZM72.2569 24.7355V21.1243H68.6805L66.3194 23.5202V24.7007H72.2569V24.7355Z" fill="#212121"/>
<path d="M76.1458 30.673V27.0966L78.5417 24.7007L76.1458 22.3049V18.7285H78.5417V21.1591L80.9028 23.5549H82.0833V18.7285H84.4792V23.5202H85.6597L88.0556 21.1243V18.7285H90.4167V22.3396L88.0556 24.7355L90.4167 27.1313V30.7077H88.0556V28.3118L85.6597 25.9507H84.4792V30.7077H82.0833V25.916H80.9375L78.5764 28.2771V30.673H76.1458Z" fill="#212121"/>
<path d="M91.9791 30.673V18.7285H94.375V26.6799L100.312 18.7285H102.674V30.673H100.312V22.7216L94.375 30.673H91.9791Z" fill="#212121"/>
<path d="M18.5417 14.3535C19.232 14.3535 19.7917 13.7939 19.7917 13.1035C19.7917 12.4132 19.232 11.8535 18.5417 11.8535C17.8513 11.8535 17.2917 12.4132 17.2917 13.1035C17.2917 13.7939 17.8513 14.3535 18.5417 14.3535Z" fill="url(#paint0_linear_66_938)"/>
<path d="M11.3195 25.3602C11.3889 25.3602 11.4931 25.3602 11.5625 25.3255C11.5972 25.3255 11.632 25.2908 11.6667 25.2908C11.7014 25.2908 11.7708 25.2561 11.8056 25.2561C11.8403 25.2561 11.875 25.2214 11.9097 25.1866C11.9445 25.1866 11.9792 25.1519 11.9792 25.1519C12.0139 25.1172 12.0486 25.0825 12.1181 25.0477L12.1528 25.013C12.1875 24.9783 12.257 24.9089 12.2917 24.8741C12.2917 24.8741 12.2917 24.8741 12.3264 24.8394C12.3611 24.77 12.3958 24.7352 12.4306 24.6658C12.5 24.5269 12.5347 24.388 12.5695 24.2491C12.8125 21.0547 14.2708 18.2075 16.4583 16.1589C16.7708 15.9158 16.9792 15.5339 16.9792 15.1172C16.9792 14.4227 16.4236 13.8672 15.7292 13.8672C15.4167 13.8672 15.1389 13.9714 14.9306 14.1797C12.1875 16.645 10.382 20.1172 10.0695 24.0408C10.0695 24.0755 10.0695 24.0755 10.0695 24.1102C10.0695 24.77 10.625 25.3602 11.3195 25.3602Z" fill="url(#paint1_linear_66_938)"/>
<path d="M41.9097 32.1313C41.4236 32.1313 41.0069 32.4091 40.7986 32.7911H40.7639C37.9514 38.6939 31.9444 42.7563 24.9652 42.7563C15.3125 42.7563 7.46524 34.9091 7.46524 25.2563C7.46524 15.6036 15.3125 7.75635 24.9652 7.75635C31.4583 7.75635 37.1527 11.298 40.1736 16.5758C40.3819 16.9925 40.7986 17.2355 41.2847 17.2355C41.9791 17.2355 42.5347 16.68 42.5347 15.9855C42.5347 15.7425 42.4652 15.4994 42.3264 15.3258L41.9097 14.6313C41.7708 14.423 41.6319 14.2147 41.493 13.9716C37.8819 8.69385 31.8402 5.25635 24.9652 5.25635C13.9236 5.25635 4.96524 14.2147 4.96524 25.2563C4.96524 36.298 13.9236 45.2563 24.9652 45.2563C32.7083 45.2563 39.4097 40.8466 42.743 34.423C42.8125 34.3188 42.8472 34.2147 42.9166 34.1105C42.9166 34.0758 42.9514 34.0758 42.9514 34.0411C42.9166 34.1452 42.9514 34.0411 42.9861 33.9369C42.9861 33.9022 43.0208 33.8675 43.0208 33.8675C43.0555 33.7633 43.0902 33.6938 43.0208 33.8327C43.0555 33.6938 43.0902 33.555 43.0902 33.4161C43.1597 32.6869 42.6041 32.1313 41.9097 32.1313Z" fill="url(#paint2_linear_66_938)"/>
<path d="M48.5764 33.3813C48.5764 32.6869 48.0208 32.1313 47.3264 32.1313C46.8403 32.1313 46.4236 32.4091 46.2153 32.7911L46.1806 32.8605C43.0556 41.5411 34.7569 47.7216 25 47.7216C12.5694 47.7216 2.5 37.6522 2.5 25.2216C2.5 12.7911 12.6042 2.75635 25 2.75635C34.2708 2.75635 42.2222 8.34663 45.6597 16.3675C45.7986 16.8883 46.2847 17.2702 46.8403 17.2702C47.5347 17.2702 48.0903 16.7147 48.0903 16.0202C48.0903 15.8813 48.0556 15.7425 48.0208 15.6036C47.7778 14.9438 47.9167 15.2911 47.6389 14.6661C47.5347 14.4925 47.4653 14.2841 47.3611 14.1105C43.2986 5.88135 34.8264 0.256348 25 0.256348C11.1806 0.256348 0 11.4369 0 25.2563C0 39.0758 11.1806 50.2563 25 50.2563C35.3125 50.2563 44.1667 44.0063 47.9861 35.0827C48.2986 34.3536 48.2639 34.5619 48.507 33.798C48.5417 33.6591 48.5764 33.5202 48.5764 33.3813Z" fill="url(#paint3_linear_66_938)"/>
</g>
<defs>
<linearGradient id="paint0_linear_66_938" x1="-0.192027" y1="35.3553" x2="30.5391" y2="-1.16287" gradientUnits="userSpaceOnUse">
<stop stop-color="#00C095"/>
<stop offset="1" stop-color="#00FEE4"/>
</linearGradient>
<linearGradient id="paint1_linear_66_938" x1="-0.0846029" y1="35.681" x2="30.6466" y2="-0.837222" gradientUnits="userSpaceOnUse">
<stop stop-color="#00C095"/>
<stop offset="1" stop-color="#00FEE4"/>
</linearGradient>
<linearGradient id="paint2_linear_66_938" x1="9.47177" y1="43.7232" x2="40.2029" y2="7.20503" gradientUnits="userSpaceOnUse">
<stop stop-color="#00BF96"/>
<stop offset="1" stop-color="#00FEE4"/>
</linearGradient>
<linearGradient id="paint3_linear_66_938" x1="9.47247" y1="43.7238" x2="40.2036" y2="7.20558" gradientUnits="userSpaceOnUse">
<stop stop-color="#00BF96"/>
<stop offset="1" stop-color="#00FEE4"/>
</linearGradient>
</defs>
</svg>
