<svg width="103" height="50" viewBox="0 0 103 50" fill="none" xmlns="http://www.w3.org/2000/svg">
<path d="M26.3467 32.8124V28.0208H27.5285V22.0485L31.1086 18.4721H37.0522V28.0208H38.2688V32.8124H35.8704V30.4166H28.745V32.8124H26.3467ZM34.6887 28.0208V20.868H32.2904L29.892 23.2638V28.0555H34.6887V28.0208Z" fill="white"/>
<path d="M40.6323 30.4166L39.4505 29.236V19.6874L40.6323 18.4721H49.009L50.1908 19.6874V29.236L49.009 30.4166H40.6323ZM47.8272 28.0207V20.868H41.8836V28.0207H47.8272Z" fill="white"/>
<path d="M51.8939 30.4166V18.4721H54.2922V23.2638H57.8723L60.2706 20.868V18.4721H62.6342V22.0832L60.2706 24.4791L62.6342 26.8749V30.4513H60.2706V28.0555L57.8723 25.6944H54.2922V30.4513H51.8939V30.4166Z" fill="white"/>
<path d="M63.9898 30.4166V22.0832L67.5351 18.4721H74.6953V30.4166H72.3317V26.8402H66.3881V30.4166H63.9898ZM72.3317 24.4791V20.868H68.7516L66.3881 23.2638V24.4444H72.3317V24.4791Z" fill="white"/>
<path d="M76.2246 30.4166V26.8402L78.623 24.4444L76.2246 22.0485V18.4721H78.623V20.9027L80.9865 23.2985H82.1683V18.4721H84.5666V23.2638H85.7484L88.1467 20.868V18.4721H90.5102V22.0832L88.1467 24.4791L90.5102 26.8749V30.4513H88.1467V28.0555L85.7484 25.6944H84.5666V30.4513H82.1683V25.6596H81.0213L78.6577 28.0207V30.4166H76.2246Z" fill="white"/>
<path d="M92.0743 30.4166V18.4721H94.4727V26.4235L100.416 18.4721H102.78V30.4166H100.416V22.4652L94.4727 30.4166H92.0743Z" fill="white"/>
<path d="M18.5608 14.0972C19.2519 14.0972 19.8121 13.5376 19.8121 12.8472C19.8121 12.1568 19.2519 11.5972 18.5608 11.5972C17.8698 11.5972 17.3095 12.1568 17.3095 12.8472C17.3095 13.5376 17.8698 14.0972 18.5608 14.0972Z" fill="url(#paint0_linear_66_452)"/>
<path d="M11.3312 25.1042C11.4007 25.1042 11.5049 25.1042 11.5745 25.0695C11.6092 25.0695 11.644 25.0348 11.6787 25.0348C11.7135 25.0348 11.783 25.0001 11.8178 25.0001C11.8525 25.0001 11.8873 24.9654 11.922 24.9306C11.9568 24.9306 11.9916 24.8959 11.9916 24.8959C12.0263 24.8612 12.0611 24.8265 12.1306 24.7917L12.1654 24.757C12.2001 24.7223 12.2696 24.6529 12.3044 24.6181C12.3044 24.6181 12.3044 24.6181 12.3391 24.5834C12.3739 24.514 12.4087 24.4792 12.4434 24.4098C12.5129 24.2709 12.5477 24.132 12.5825 23.9931C12.8258 20.7987 14.2856 17.9515 16.4754 15.9029C16.7882 15.6598 16.9967 15.2779 16.9967 14.8612C16.9967 14.1667 16.4406 13.6112 15.7454 13.6112C15.4326 13.6112 15.1546 13.7154 14.946 13.9237C12.2001 16.389 10.3927 19.8612 10.0799 23.7848C10.0799 23.8195 10.0799 23.8195 10.0799 23.8542C10.0799 24.514 10.636 25.1042 11.3312 25.1042Z" fill="url(#paint1_linear_66_452)"/>
<path d="M41.9531 31.875C41.4665 31.875 41.0494 32.1528 40.8408 32.5347H40.8061C37.9907 38.4375 31.9775 42.5 24.9911 42.5C15.3284 42.5 7.47302 34.6528 7.47302 25C7.47302 15.3472 15.3284 7.5 24.9911 7.5C31.4909 7.5 37.1912 11.0417 40.2152 16.3194C40.4237 16.7361 40.8408 16.9792 41.3275 16.9792C42.0226 16.9792 42.5788 16.4236 42.5788 15.7292C42.5788 15.4861 42.5092 15.2431 42.3702 15.0694L41.9531 14.375C41.8141 14.1667 41.675 13.9583 41.536 13.7153C37.9212 8.4375 31.8732 5 24.9911 5C13.938 5 4.97043 13.9583 4.97043 25C4.97043 36.0417 13.938 45 24.9911 45C32.7422 45 39.4505 40.5903 42.7873 34.1667C42.8568 34.0625 42.8916 33.9583 42.9611 33.8542C42.9611 33.8194 42.9959 33.8194 42.9959 33.7847C42.9611 33.8889 42.9958 33.7847 43.0306 33.6806C43.0306 33.6458 43.0654 33.6111 43.0654 33.6111C43.1001 33.5069 43.1349 33.4375 43.0654 33.5764C43.1001 33.4375 43.1349 33.2986 43.1349 33.1597C43.2044 32.4306 42.6483 31.875 41.9531 31.875Z" fill="url(#paint2_linear_66_452)"/>
<path d="M48.6267 33.125C48.6267 32.4306 48.0706 31.875 47.3754 31.875C46.8888 31.875 46.4717 32.1528 46.2631 32.5347L46.2284 32.6042C43.1001 41.2847 34.7929 47.4653 25.0259 47.4653C12.5825 47.4653 2.50259 37.3958 2.50259 24.9653C2.50259 12.5347 12.6172 2.5 25.0259 2.5C34.3063 2.5 42.2659 8.09028 45.707 16.1111C45.846 16.6319 46.3326 17.0139 46.8888 17.0139C47.5839 17.0139 48.1401 16.4583 48.1401 15.7639C48.1401 15.625 48.1053 15.4861 48.0706 15.3472C47.8272 14.6875 47.9663 15.0347 47.6882 14.4097C47.5839 14.2361 47.5144 14.0278 47.4101 13.8542C43.3434 5.625 34.8624 0 25.0259 0C11.1921 0 0 11.1806 0 25C0 38.8194 11.1921 50 25.0259 50C35.3491 50 44.2124 43.75 48.0358 34.8264C48.3486 34.0972 48.3139 34.3056 48.5572 33.5417C48.5919 33.4028 48.6267 33.2639 48.6267 33.125Z" fill="url(#paint3_linear_66_452)"/>
<defs>
<linearGradient id="paint0_linear_66_452" x1="-0.192393" y1="35.099" x2="30.5333" y2="-1.45077" gradientUnits="userSpaceOnUse">
<stop stop-color="#00C095"/>
<stop offset="1" stop-color="#00FEE4"/>
</linearGradient>
<linearGradient id="paint1_linear_66_452" x1="-0.0847122" y1="35.425" x2="30.641" y2="-1.12456" gradientUnits="userSpaceOnUse">
<stop stop-color="#00C095"/>
<stop offset="1" stop-color="#00FEE4"/>
</linearGradient>
<linearGradient id="paint2_linear_66_452" x1="9.48162" y1="43.4669" x2="40.2073" y2="6.91736" gradientUnits="userSpaceOnUse">
<stop stop-color="#00BF96"/>
<stop offset="1" stop-color="#00FEE4"/>
</linearGradient>
<linearGradient id="paint3_linear_66_452" x1="9.48227" y1="43.4674" x2="40.208" y2="6.91791" gradientUnits="userSpaceOnUse">
<stop stop-color="#00BF96"/>
<stop offset="1" stop-color="#00FEE4"/>
</linearGradient>
</defs>
</svg>
