<svg width="69" height="70" viewBox="0 0 69 70" fill="none" xmlns="http://www.w3.org/2000/svg">
<path d="M25.9852 19.7362C26.9527 19.7362 27.737 18.9527 27.737 17.9862C27.737 17.0197 26.9527 16.2362 25.9852 16.2362C25.0177 16.2362 24.2334 17.0197 24.2334 17.9862C24.2334 18.9527 25.0177 19.7362 25.9852 19.7362Z" fill="url(#paint0_linear_66_389)"/>
<path d="M15.8636 35.146C15.9609 35.146 16.1069 35.146 16.2042 35.0974C16.2529 35.0974 16.3016 35.0488 16.3502 35.0488C16.3989 35.0488 16.4962 35.0002 16.5449 35.0002C16.5935 35.0002 16.6422 34.9516 16.6908 34.9029C16.7395 34.9029 16.7882 34.8543 16.7882 34.8543C16.8368 34.8057 16.8855 34.7571 16.9828 34.7085L17.0315 34.6599C17.0801 34.6113 17.1775 34.5141 17.2261 34.4654C17.2261 34.4654 17.2261 34.4654 17.2748 34.4168C17.3234 34.3196 17.3721 34.271 17.4208 34.1738C17.5181 33.9793 17.5667 33.7849 17.6154 33.5904C17.956 29.1182 19.9998 25.1321 23.0655 22.2641C23.5034 21.9238 23.7954 21.3891 23.7954 20.8057C23.7954 19.8335 23.0168 19.0557 22.0436 19.0557C21.6056 19.0557 21.2164 19.2016 20.9244 19.4932C17.0801 22.9446 14.5497 27.8057 14.1118 33.2988C14.1118 33.3474 14.1118 33.3474 14.1118 33.396C14.1118 34.3196 14.8904 35.146 15.8636 35.146Z" fill="url(#paint1_linear_66_389)"/>
<path d="M58.7343 44.625C58.0531 44.625 57.4691 45.0139 57.1772 45.5486H57.1285C53.1869 53.8125 44.7685 59.5 34.9876 59.5C21.4597 59.5 10.4622 48.5139 10.4622 35C10.4622 21.4861 21.4597 10.5 34.9876 10.5C44.0873 10.5 52.0677 15.4583 56.3013 22.8472C56.5932 23.4306 57.1772 23.7708 57.8584 23.7708C58.8317 23.7708 59.6102 22.9931 59.6102 22.0208C59.6102 21.6806 59.5129 21.3403 59.3183 21.0972L58.7343 20.125C58.5397 19.8333 58.345 19.5417 58.1504 19.2014C53.0896 11.8125 44.6225 7 34.9876 7C19.5132 7 6.95859 19.5417 6.95859 35C6.95859 50.4583 19.5132 63 34.9876 63C45.8391 63 55.2307 56.8264 59.9022 47.8333C59.9995 47.6875 60.0482 47.5417 60.1455 47.3958C60.1455 47.3472 60.1942 47.3472 60.1942 47.2986C60.1455 47.4444 60.1942 47.2986 60.2428 47.1528C60.2428 47.1042 60.2915 47.0555 60.2915 47.0555C60.3402 46.9097 60.3888 46.8125 60.2915 47.0069C60.3402 46.8125 60.3888 46.618 60.3888 46.4236C60.4862 45.4028 59.7076 44.625 58.7343 44.625Z" fill="url(#paint2_linear_66_389)"/>
<path d="M68.0774 46.375C68.0774 45.4028 67.2988 44.625 66.3255 44.625C65.6443 44.625 65.0603 45.0139 64.7684 45.5486L64.7197 45.6458C60.3402 57.7986 48.7101 66.4514 35.0362 66.4514C17.6154 66.4514 3.50362 52.3542 3.50362 34.9514C3.50362 17.5486 17.6641 3.5 35.0362 3.5C48.0288 3.5 59.1723 11.3264 63.9898 22.5556C64.1844 23.2847 64.8657 23.8194 65.6443 23.8194C66.6175 23.8194 67.3961 23.0417 67.3961 22.0694C67.3961 21.875 67.3474 21.6806 67.2988 21.4861C66.9581 20.5625 67.1528 21.0486 66.7635 20.1736C66.6175 19.9306 66.5202 19.6389 66.3742 19.3958C60.6808 7.875 48.8074 0 35.0362 0C15.669 0 0 15.6528 0 35C0 54.3472 15.669 70 35.0362 70C49.4887 70 61.8974 61.25 67.2501 48.7569C67.6881 47.7361 67.6394 48.0278 67.98 46.9583C68.0287 46.7639 68.0774 46.5694 68.0774 46.375Z" fill="url(#paint3_linear_66_389)"/>
<defs>
<linearGradient id="paint0_linear_66_389" x1="-0.269337" y1="49.1387" x2="42.7466" y2="-2.03096" gradientUnits="userSpaceOnUse">
<stop stop-color="#00C095"/>
<stop offset="1" stop-color="#00FEE4"/>
</linearGradient>
<linearGradient id="paint1_linear_66_389" x1="-0.118621" y1="49.595" x2="42.8974" y2="-1.57432" gradientUnits="userSpaceOnUse">
<stop stop-color="#00C095"/>
<stop offset="1" stop-color="#00FEE4"/>
</linearGradient>
<linearGradient id="paint2_linear_66_389" x1="13.2743" y1="60.8536" x2="56.2902" y2="9.6843" gradientUnits="userSpaceOnUse">
<stop stop-color="#00BF96"/>
<stop offset="1" stop-color="#00FEE4"/>
</linearGradient>
<linearGradient id="paint3_linear_66_389" x1="13.2752" y1="60.8544" x2="56.2912" y2="9.68507" gradientUnits="userSpaceOnUse">
<stop stop-color="#00BF96"/>
<stop offset="1" stop-color="#00FEE4"/>
</linearGradient>
</defs>
</svg>
