<svg width="108" height="103" viewBox="0 0 108 103" fill="none" xmlns="http://www.w3.org/2000/svg">
<g opacity="0.25">
<circle cx="50" cy="48" r="45" fill="url(#paint0_linear_66_645)"/>
</g>
<g opacity="0.15">
<circle cx="45" cy="58" r="45" fill="url(#paint1_linear_66_645)"/>
</g>
<g opacity="0.25">
<circle cx="63" cy="54" r="45" fill="url(#paint2_linear_66_645)"/>
</g>
<g opacity="0.15">
<circle cx="60" cy="45" r="45" fill="url(#paint3_linear_66_645)"/>
</g>
<g opacity="0.4">
<circle cx="54" cy="51" r="40" fill="url(#paint4_linear_66_645)"/>
</g>
<path d="M54.4598 24C45.845 23.9943 38.8568 30.8966 38.8512 39.4167C38.8485 43.5072 40.4884 47.4312 43.4105 50.3261C46.3308 53.2269 50.3002 54.8565 54.4391 54.8537C63.0539 54.8593 70.042 47.957 70.0477 39.437C70.0533 30.917 63.0744 24.0056 54.4598 24ZM62.0926 27.6921C64.7636 29.3968 66.7766 31.9413 67.8067 34.9157C66.868 34.1298 65.8612 33.4274 64.7978 32.8165C62.7627 31.5817 61.2561 30.6597 62.0926 27.6921ZM43.2315 47.9305C41.3372 45.4938 40.3127 42.5047 40.3183 39.431C40.3094 35.7265 41.7937 32.1714 44.4426 29.5525C45.121 31.3965 46.4527 32.5284 47.6721 33.5615C48.7833 34.5041 49.778 35.352 49.7988 36.5333C49.7988 37.3853 49.2827 38.0315 48.6918 38.7477C47.8644 39.6301 47.2661 40.6979 46.948 41.8594C46.8297 42.6081 46.8045 43.3684 46.8731 44.1232C46.9189 45.3374 46.9771 46.7492 46.5901 47.6342C46.2405 48.4574 45.3416 48.7867 43.2315 47.9305ZM54.4391 53.3966V53.3925C53.8633 53.3926 53.2879 53.3582 52.7162 53.2896C52.2765 52.3142 52.6018 51.1675 53.4903 50.5607C54.1395 50.0914 55.9291 50.6183 57.8143 51.174C58.7882 51.4621 59.7828 51.7543 60.7276 51.9354C58.7744 52.8985 56.6216 53.3987 54.4391 53.3966ZM62.8875 50.6183C61.7097 50.82 59.9285 50.2931 58.218 49.7951C55.9748 49.1324 53.844 48.5068 52.6038 49.4041C51.4058 50.1877 50.8134 51.6156 51.1097 53.0056C48.8847 52.4716 46.8248 51.4092 45.1085 49.9103C46.343 50.0787 47.5282 49.3698 47.951 48.2104C48.4629 47.0332 48.4004 45.4403 48.3672 44.0738C48.3112 43.4501 48.3223 42.8223 48.4004 42.201C48.6777 41.2589 49.1753 40.3946 49.8529 39.6779C50.6228 38.7477 51.3137 37.908 51.2887 36.5251C51.2554 34.6811 50.0402 33.6438 48.6502 32.4667C47.4599 31.4541 46.1531 30.3346 45.6745 28.4947C48.165 26.5327 51.2551 25.4646 54.4391 25.4653C56.6401 25.4619 58.8111 25.9694 60.7775 26.9471C59.3667 31.2236 61.3393 32.4255 64.0112 34.0637C65.447 34.9404 67.1242 35.957 68.4476 37.7928C68.512 38.3393 68.544 38.889 68.5433 39.4392C68.5391 43.8375 66.4443 47.978 62.8875 50.6183Z" fill="white"/>
<path d="M80.0949 58.7778L80.0826 58.757C79.5221 57.9131 78.6666 57.3033 77.6798 57.0444C76.693 56.7855 75.6444 56.8956 74.7346 57.3538L69.1257 60.1906C68.4539 59.2579 67.4656 58.595 66.3409 58.3228C65.2162 58.0505 64.03 58.1872 62.9987 58.7077L55.9351 62.2881C55.5666 62.4758 55.1577 62.5726 54.7433 62.57C54.3288 62.5674 53.9212 62.4657 53.5551 62.2734L48.741 59.7456C46.9192 58.7838 44.8635 58.3399 42.802 58.4634C40.7406 58.5869 38.7541 59.2728 37.0629 60.4451L36.5193 57.881C36.4956 57.7694 36.4499 57.6635 36.3847 57.5695C36.3195 57.4754 36.2361 57.395 36.1394 57.3329C36.0427 57.2708 35.9345 57.2282 35.8211 57.2076C35.7077 57.187 35.5913 57.1887 35.4786 57.2127L28.6907 58.6609C28.4648 58.7091 28.2673 58.8438 28.1413 59.0355C28.0154 59.2272 27.9712 59.4604 28.0185 59.6842L31.9704 78.3074C32.0107 78.5026 32.1179 78.6782 32.2739 78.8043C32.4298 78.9305 32.625 78.9996 32.8265 78.9999C32.8882 78.9997 32.9498 78.9933 33.0103 78.9809L39.8017 77.5352C40.0278 77.487 40.2255 77.3523 40.3514 77.1604C40.4774 76.9685 40.5214 76.735 40.4739 76.5111L40.1238 74.8447L42.4442 74.3504C43.1205 74.2074 43.8166 74.181 44.502 74.2725L55.4151 75.4559C57.6809 75.7523 59.9781 75.219 61.8739 73.9565L79.3561 62.3565C79.9278 61.9738 80.3252 61.385 80.4632 60.7161C80.6013 60.0472 80.4691 59.3515 80.0949 58.7778ZM33.5022 77.1007L29.9135 60.1724L34.9902 59.0903L38.5789 76.0194L33.5022 77.1007ZM78.3819 60.9212L60.8997 72.5212C59.3496 73.5496 57.4723 73.9807 55.6226 73.7332L44.7094 72.5498C43.8312 72.4327 42.9391 72.4679 42.0731 72.6537L39.7605 73.1454L37.4533 62.2881L38.0511 61.8761C39.4786 60.8826 41.1569 60.3004 42.8991 60.1943C44.6414 60.0883 46.3792 60.4625 47.9191 61.2753L52.7332 63.803C53.3485 64.1264 54.0337 64.2978 54.7304 64.3025C55.4271 64.3071 56.1146 64.145 56.7342 63.8299L63.7996 60.2451C64.5058 59.8881 65.3237 59.8129 66.0845 60.0348C66.8452 60.2568 67.4908 60.7591 67.8881 61.438C68.0047 61.6368 68.0375 61.873 67.9795 62.0955C67.9216 62.3181 67.7774 62.5091 67.5782 62.6275L57.838 68.3409C56.135 69.3454 54.1065 69.6632 52.1731 69.2282L43.3886 67.1506L42.9825 68.8352L51.7748 70.9128C54.148 71.4506 56.6394 71.0627 58.7308 69.8299L68.471 64.1164C68.87 63.8796 69.1982 63.5421 69.422 63.1385C69.6458 62.735 69.7571 62.2799 69.7446 61.8198L75.5285 58.8929C76.0522 58.6299 76.6555 58.5665 77.2235 58.7148C77.7914 58.8631 78.2844 59.2127 78.6086 59.6972L78.6183 59.7119C78.7444 59.9046 78.7902 60.1382 78.7462 60.3636C78.7021 60.589 78.5716 60.7888 78.3819 60.9212Z" fill="white"/>
<defs>
<linearGradient id="paint0_linear_66_645" x1="81.5" y1="18.6959" x2="16.8125" y2="77.1959" gradientUnits="userSpaceOnUse">
<stop stop-color="#9EBCFF"/>
<stop offset="1" stop-color="#00BF96"/>
</linearGradient>
<linearGradient id="paint1_linear_66_645" x1="76.5" y1="28.6959" x2="11.8125" y2="87.1959" gradientUnits="userSpaceOnUse">
<stop stop-color="#9EBCFF"/>
<stop offset="1" stop-color="#00BF96"/>
</linearGradient>
<linearGradient id="paint2_linear_66_645" x1="94.5" y1="24.6959" x2="29.8125" y2="83.1959" gradientUnits="userSpaceOnUse">
<stop stop-color="#9EBCFF"/>
<stop offset="1" stop-color="#00BF96"/>
</linearGradient>
<linearGradient id="paint3_linear_66_645" x1="91.5" y1="15.6959" x2="26.8125" y2="74.1959" gradientUnits="userSpaceOnUse">
<stop stop-color="#9EBCFF"/>
<stop offset="1" stop-color="#00BF96"/>
</linearGradient>
<linearGradient id="paint4_linear_66_645" x1="82" y1="24.9519" x2="24.5" y2="76.9519" gradientUnits="userSpaceOnUse">
<stop stop-color="#1A3D8A"/>
<stop offset="1" stop-color="#00BF96"/>
</linearGradient>
</defs>
</svg>
