<svg width="108" height="103" viewBox="0 0 108 103" fill="none" xmlns="http://www.w3.org/2000/svg">
<g opacity="0.25">
<circle cx="50" cy="48" r="45" fill="url(#paint0_linear_66_525)"/>
</g>
<g opacity="0.15">
<circle cx="45" cy="58" r="45" fill="url(#paint1_linear_66_525)"/>
</g>
<g opacity="0.25">
<circle cx="63" cy="54" r="45" fill="url(#paint2_linear_66_525)"/>
</g>
<g opacity="0.15">
<circle cx="60" cy="45" r="45" fill="url(#paint3_linear_66_525)"/>
</g>
<path opacity="0.45" d="M94 51C94 73.0914 76.0914 91 54 91C31.9086 91 14 73.0914 14 51C14 28.9086 31.9086 11 54 11C76.0914 11 94 28.9086 94 51Z" fill="url(#paint4_linear_66_525)"/>
<path d="M40.4225 66.4014C40.1387 63.3067 38.7149 61.0422 37.27 58.7199C34.4118 54.1857 31.3855 49.3835 38.2158 37.0837C38.4631 36.615 38.2845 36.0346 37.8164 35.786C37.3525 35.5276 36.7669 35.6943 36.5086 36.1582C36.5084 36.1585 36.5083 36.1587 36.5082 36.159C29.121 49.4465 32.4626 54.7374 35.615 59.7445C36.9548 61.8461 38.242 63.9477 38.5047 66.5748C38.5527 67.1044 39.0207 67.4949 39.5503 67.4469C40.0799 67.399 40.4704 66.931 40.4225 66.4014Z" fill="white"/>
<path d="M63.6351 37.1204C63.3291 37.962 62.8968 38.7522 62.3531 39.4637C61.3952 40.7544 60.0032 41.6556 58.4336 42.0014C56.7628 42.364 54.7558 42.138 52.465 41.103C49.1497 39.6056 45.2879 36.4636 41.0426 31.0572C43.4595 30.8103 47.7521 30.0327 50.9518 27.6C53.6577 25.5404 56.1008 24.7839 58.1236 24.973C58.9928 25.0421 59.836 25.3022 60.593 25.7348C61.34 26.1678 61.9923 26.7468 62.5107 27.4372C63.3418 28.5689 63.8928 29.8815 64.1185 31.2674C64.8039 31.3964 65.4798 31.5719 66.1413 31.7928C65.9556 29.7889 65.2292 27.873 64.0397 26.2497C63.3618 25.3512 62.5093 24.5988 61.5335 24.0378C60.5301 23.4643 59.4123 23.1199 58.2602 23.029C55.7908 22.8241 52.8906 23.691 49.7644 26.0711C45.8449 29.0502 39.9445 29.2235 39.2195 29.2235C38.6867 29.1886 38.2265 29.5921 38.1915 30.1249C38.1766 30.353 38.2429 30.5791 38.3788 30.763C43.2966 37.3358 47.7994 41.0872 51.6664 42.8473C54.367 44.061 56.7786 44.3185 58.8329 43.8981C60.8565 43.4537 62.6504 42.2908 63.8821 40.6249C64.5287 39.7692 65.0441 38.8218 65.411 37.8139L65.2586 37.7404C64.7356 37.489 64.1926 37.2816 63.6351 37.1204Z" fill="white"/>
<path d="M77.5793 45.4379C69.7507 32.392 63.4984 32.6337 57.5876 32.8649C55.0761 32.9647 52.633 33.0593 50.2319 31.9507C49.7306 31.7753 49.1821 32.0396 49.0069 32.5408C48.856 32.9725 49.0299 33.4507 49.4227 33.6845C52.2442 34.9823 54.9132 34.8824 57.6559 34.7721C63.015 34.583 68.6894 34.3623 75.9242 46.4256C76.1971 46.8826 76.7887 47.0321 77.2456 46.7592C77.7026 46.4866 77.8521 45.895 77.5793 45.4379Z" fill="white"/>
<path d="M47.2264 59.8756C46.9322 56.9333 45.9444 54.7161 44.5311 53.1556C43.1391 51.6267 41.2414 50.6527 39.1877 50.413C38.1249 50.2801 37.0482 50.3066 35.9932 50.4918C35.9932 50.5496 35.9932 50.6021 35.9932 50.6599C36.0387 51.2448 36.1336 51.8249 36.2769 52.3938C37.1561 52.235 38.0543 52.2102 38.9408 52.3202C40.5338 52.4979 42.0094 53.2442 43.0967 54.4218C44.2421 55.6881 45.0512 57.5375 45.3034 60.0384C45.666 63.6532 44.8778 68.5658 42.3296 74.9705C40.9058 72.995 38.0843 69.6639 34.3802 68.1087C31.2278 66.7899 29.3626 65.0613 28.5009 63.2277C28.1228 62.4493 27.9201 61.5973 27.9072 60.732C27.9116 59.8664 28.0903 59.0104 28.4326 58.2153C28.9968 56.9291 29.8574 55.7949 30.9441 54.9052C30.723 54.2419 30.5474 53.5644 30.4187 52.8772C28.7749 54.0394 27.4782 55.6267 26.6673 57.4692C26.2279 58.5008 26.0009 59.6106 26 60.732C26.0047 61.8884 26.2648 63.0294 26.7618 64.0736C27.8127 66.317 30.0246 68.3977 33.6394 69.9161C38.4626 71.9336 41.6676 77.4557 41.6991 77.5135C41.9616 77.9752 42.5485 78.1366 43.0102 77.8743C43.1954 77.7689 43.3405 77.6051 43.4225 77.4084C46.6537 69.8688 47.652 64.0946 47.2264 59.8756Z" fill="white"/>
<path d="M74.5818 58.0871C74.2756 57.6518 73.6747 57.5471 73.2394 57.8533C70.7017 59.6449 69.4565 62.0145 68.1745 64.4471C65.6736 69.1758 63.0308 74.2144 48.9656 74.4298C48.4346 74.4385 48.0112 74.876 48.0199 75.4071C48.0286 75.9381 48.4661 76.3615 48.9972 76.3528C64.2077 76.1006 67.1237 70.5733 69.8821 65.3193C71.0485 63.1073 72.1886 60.9426 74.348 59.4295C74.7833 59.1234 74.888 58.5224 74.5818 58.0871Z" fill="white"/>
<path d="M81.8424 49.8349C81.6633 49.7327 81.4563 49.6904 81.2517 49.7142L81.2779 49.7405C73.1289 50.7072 67.6279 52.7353 64.1602 55.2257C61.7591 56.9543 60.33 58.9036 59.689 60.9159C59.0607 62.8842 59.1652 65.0134 59.9832 66.9108C60.4011 67.898 60.9642 68.8171 61.654 69.6376L61.7906 69.5431C62.2748 69.2107 62.73 68.8382 63.1514 68.4292C62.5764 67.7504 62.107 66.9888 61.7591 66.1699C61.121 64.6897 61.0407 63.0285 61.5332 61.4938C62.0586 59.8651 63.2513 58.2468 65.2951 56.7652C68.2426 54.6635 72.8872 52.8719 79.707 51.8789C78.714 54.1014 77.2376 58.1838 77.7472 62.1874C78.178 65.5657 77.6159 68.0562 76.4547 69.7269C75.961 70.444 75.3151 71.0431 74.5632 71.4818C73.8132 71.9125 72.984 72.1877 72.1254 72.2909C70.7283 72.4441 69.315 72.264 68.0009 71.7655C67.5396 72.2911 67.0428 72.7844 66.514 73.2419C68.3413 74.0826 70.3624 74.4112 72.3618 74.1929C73.4724 74.0571 74.5443 73.6998 75.5142 73.1421C76.5132 72.5591 77.3708 71.7625 78.0257 70.8093C79.439 68.7707 80.1273 65.8284 79.6439 61.9352C78.9819 56.7336 82.1921 51.1696 82.2027 51.1538C82.4673 50.6902 82.306 50.0997 81.8424 49.8349Z" fill="white"/>
<defs>
<linearGradient id="paint0_linear_66_525" x1="81.5" y1="18.6959" x2="16.8125" y2="77.1959" gradientUnits="userSpaceOnUse">
<stop stop-color="#9EBCFF"/>
<stop offset="1" stop-color="#00BF96"/>
</linearGradient>
<linearGradient id="paint1_linear_66_525" x1="76.5" y1="28.6959" x2="11.8125" y2="87.1959" gradientUnits="userSpaceOnUse">
<stop stop-color="#9EBCFF"/>
<stop offset="1" stop-color="#00BF96"/>
</linearGradient>
<linearGradient id="paint2_linear_66_525" x1="94.5" y1="24.6959" x2="29.8125" y2="83.1959" gradientUnits="userSpaceOnUse">
<stop stop-color="#9EBCFF"/>
<stop offset="1" stop-color="#00BF96"/>
</linearGradient>
<linearGradient id="paint3_linear_66_525" x1="91.5" y1="15.6959" x2="26.8125" y2="74.1959" gradientUnits="userSpaceOnUse">
<stop stop-color="#9EBCFF"/>
<stop offset="1" stop-color="#00BF96"/>
</linearGradient>
<linearGradient id="paint4_linear_66_525" x1="82" y1="24.9519" x2="24.5" y2="76.9519" gradientUnits="userSpaceOnUse">
<stop stop-color="#1A3D8A"/>
<stop offset="1" stop-color="#00BF96"/>
</linearGradient>
</defs>
</svg>
