<svg width="108" height="103" viewBox="0 0 108 103" fill="none" xmlns="http://www.w3.org/2000/svg">
<g opacity="0.25">
<circle cx="50" cy="48" r="45" fill="url(#paint0_linear_66_606)"/>
</g>
<g opacity="0.15">
<circle cx="45" cy="58" r="45" fill="url(#paint1_linear_66_606)"/>
</g>
<g opacity="0.25">
<circle cx="63" cy="54" r="45" fill="url(#paint2_linear_66_606)"/>
</g>
<g opacity="0.15">
<circle cx="60" cy="45" r="45" fill="url(#paint3_linear_66_606)"/>
</g>
<g opacity="0.4">
<circle cx="54" cy="51" r="40" fill="url(#paint4_linear_66_606)"/>
</g>
<path d="M81.7028 45.824C77.1963 34.4962 67.1182 27.1202 55.6052 26.6487V24.1676C55.6052 23.4603 55.1344 23 54.4394 23C53.7443 23 53.2735 23.4715 53.2735 24.1676V26.6487C41.7493 27.1202 31.5592 34.6197 27.0526 46.0486C26.7387 47.1376 27.8934 47.9908 28.8014 47.4519C29.9673 46.7446 31.1332 46.3966 32.4112 46.3966C34.9783 46.3966 37.3101 47.8 38.8234 50.1464C39.6082 51.2354 40.4826 50.4944 40.6843 50.1464C42.1193 47.6765 44.6416 46.3966 47.0966 46.3966C49.5293 46.3966 51.7601 47.6652 53.2735 49.7983V73.6665C53.2735 74.7218 51.4477 75.6536 50.4051 75.6536C49.3626 75.6536 47.0966 74.7218 47.0966 73.6665V71.6793C47.0966 70.972 46.6258 70.5117 45.9308 70.5117C45.2357 70.5117 44.7649 70.9833 44.7649 71.6793V73.6665C44.7649 76.0129 48.0734 78 50.4051 78C52.7368 78 55.6052 76.0129 55.6052 73.6665V49.832C57.2195 47.6877 59.4504 46.4078 61.7821 46.4078C64.3493 46.4078 66.681 47.8112 68.1944 50.1576C68.9567 51.269 69.932 50.5168 70.1786 50.1576C71.8153 47.8112 74.1358 46.4078 76.5909 46.4078C77.8689 46.4078 79.0347 46.7559 80.2006 47.4632C81.9831 48.496 82.1848 46.6324 81.7028 45.824ZM76.4676 44.0727C73.6762 44.0727 71.1091 45.3637 69.1249 47.5867C67.1406 45.3637 64.5847 44.0727 61.7821 44.0727C58.9908 44.0727 56.4236 45.3637 54.4394 47.5867C52.4552 45.3637 49.8992 44.0727 47.0966 44.0727C44.3053 44.0727 41.7381 45.3637 39.7539 47.5867C37.7697 45.3637 35.2137 44.0727 32.4112 44.0727C31.7161 44.0727 31.1332 44.1849 30.4269 44.3084C35.0904 34.9341 44.2941 28.9726 54.4394 28.9726C64.5735 28.9726 73.7883 34.9453 78.4406 44.3084C77.7456 44.1849 77.1626 44.0727 76.4676 44.0727Z" fill="white"/>
<defs>
<linearGradient id="paint0_linear_66_606" x1="81.5" y1="18.6959" x2="16.8125" y2="77.1959" gradientUnits="userSpaceOnUse">
<stop stop-color="#9EBCFF"/>
<stop offset="1" stop-color="#00BF96"/>
</linearGradient>
<linearGradient id="paint1_linear_66_606" x1="76.5" y1="28.6959" x2="11.8125" y2="87.1959" gradientUnits="userSpaceOnUse">
<stop stop-color="#9EBCFF"/>
<stop offset="1" stop-color="#00BF96"/>
</linearGradient>
<linearGradient id="paint2_linear_66_606" x1="94.5" y1="24.6959" x2="29.8125" y2="83.1959" gradientUnits="userSpaceOnUse">
<stop stop-color="#9EBCFF"/>
<stop offset="1" stop-color="#00BF96"/>
</linearGradient>
<linearGradient id="paint3_linear_66_606" x1="91.5" y1="15.6959" x2="26.8125" y2="74.1959" gradientUnits="userSpaceOnUse">
<stop stop-color="#9EBCFF"/>
<stop offset="1" stop-color="#00BF96"/>
</linearGradient>
<linearGradient id="paint4_linear_66_606" x1="82" y1="24.9519" x2="24.5" y2="76.9519" gradientUnits="userSpaceOnUse">
<stop stop-color="#1A3D8A"/>
<stop offset="1" stop-color="#00BF96"/>
</linearGradient>
</defs>
</svg>
