<svg width="188" height="180" viewBox="0 0 188 180" fill="none" xmlns="http://www.w3.org/2000/svg">
<g filter="url(#filter0_d_66_724)">
<rect x="40" y="40" width="108" height="100" rx="15" fill="white"/>
</g>
<path d="M119.941 72.0964H114.81V65.4979C114.81 62.4663 112.343 60 109.312 60H68.4981C65.4665 60 63 62.4665 63 65.4979V102.406C63 105.437 65.4665 107.904 68.4981 107.904H73.6294V114.502C73.6294 117.534 76.0959 120 79.1275 120H119.941C122.973 120 125.439 117.534 125.439 114.502V77.5944C125.439 74.5628 122.973 72.0964 119.941 72.0964ZM119.941 74.5354C121.628 74.5354 123 75.9076 123 77.5943V110.259L107.457 92.6879C107.226 92.4262 106.893 92.2763 106.544 92.2763C106.194 92.2763 105.862 92.4262 105.63 92.6879L97.2939 102.112L91.3702 95.719C91.1393 95.4699 90.8152 95.3282 90.4757 95.3282C90.1362 95.3282 89.812 95.4698 89.5812 95.7189L76.0684 110.302V77.5944C76.0684 75.9077 77.4408 74.5355 79.1275 74.5355L119.941 74.5354ZM95.6698 103.948L89.5887 110.823H78.9116L90.4757 98.3423L95.6698 103.948ZM73.6294 77.5944V105.465H68.4981C66.8113 105.465 65.439 104.092 65.439 102.406V65.4979C65.439 63.8112 66.8113 62.439 68.4981 62.439H109.312C110.998 62.439 112.371 63.8112 112.371 65.4979V72.0964H79.1275C76.0959 72.0964 73.6294 74.5628 73.6294 77.5944ZM119.941 117.561H79.1275C77.4408 117.561 76.0684 116.189 76.0684 114.502V113.261C76.0853 113.261 76.1021 113.262 76.1191 113.262H114.646C115.32 113.262 115.866 112.716 115.866 112.042C115.866 111.369 115.32 110.823 114.646 110.823H92.8451L106.544 95.3365L120.243 110.823H113.542C112.869 110.823 112.322 111.369 112.322 112.042C112.322 112.716 112.869 113.262 113.542 113.262H123V114.502C123 116.189 121.628 117.561 119.941 117.561Z" fill="#1A3D8A"/>
<path d="M94.9411 91.6358C91.3752 91.6358 88.4741 88.7347 88.4741 85.1687C88.4741 81.6028 91.3752 78.7017 94.9411 78.7017C98.5071 78.7017 101.408 81.6028 101.408 85.1687C101.408 88.7347 98.5071 91.6358 94.9411 91.6358V91.6358ZM94.9411 81.1407C92.72 81.1407 90.9131 82.9476 90.9131 85.1687C90.9131 87.3898 92.72 89.1968 94.9411 89.1968C97.1622 89.1968 98.9692 87.3898 98.9692 85.1687C98.9692 82.9476 97.1622 81.1407 94.9411 81.1407V81.1407Z" fill="#00BF96"/>
<defs>
<filter id="filter0_d_66_724" x="0" y="0" width="188" height="180" filterUnits="userSpaceOnUse" color-interpolation-filters="sRGB">
<feFlood flood-opacity="0" result="BackgroundImageFix"/>
<feColorMatrix in="SourceAlpha" type="matrix" values="0 0 0 0 0 0 0 0 0 0 0 0 0 0 0 0 0 0 127 0" result="hardAlpha"/>
<feOffset/>
<feGaussianBlur stdDeviation="20"/>
<feColorMatrix type="matrix" values="0 0 0 0 0.101961 0 0 0 0 0.239216 0 0 0 0 0.541176 0 0 0 0.2 0"/>
<feBlend mode="normal" in2="BackgroundImageFix" result="effect1_dropShadow_66_724"/>
<feBlend mode="normal" in="SourceGraphic" in2="effect1_dropShadow_66_724" result="shape"/>
</filter>
</defs>
</svg>
