<svg width="188" height="180" viewBox="0 0 188 180" fill="none" xmlns="http://www.w3.org/2000/svg">
<g filter="url(#filter0_d_66_716)">
<rect x="40" y="40" width="108" height="100" rx="15" fill="white"/>
</g>
<path d="M109.775 81.3011H107.136V73.2446C107.136 65.9415 101.195 60 93.8917 60C86.5886 60 80.6471 65.9415 80.6471 73.2446V81.301H78.0083C74.1439 81.301 71 84.4444 71 88.3082V112.992C71 116.856 74.144 120 78.0083 120H109.775C113.64 120 116.784 116.856 116.784 112.992V88.3082C116.783 84.4444 113.639 81.3011 109.775 81.3011ZM83 73.2446C83 67.2389 87.886 62.3529 93.8917 62.3529C99.8974 62.3529 104.783 67.2389 104.783 73.2446V81.301H101.466V73.2446C101.466 69.0676 98.068 65.6693 93.8917 65.6693C89.7154 65.6693 86.3177 69.0675 86.3177 73.2446V81.301H83V73.2446ZM99.1129 73.2446V81.301H88.6706V73.2446C88.6706 70.365 91.0128 68.0223 93.8917 68.0223C96.7707 68.0223 99.1129 70.365 99.1129 73.2446ZM114.431 112.992C114.431 115.559 112.342 117.647 109.775 117.647H78.0083C75.4413 117.647 73.353 115.558 73.353 112.992V88.3082C73.353 85.7421 75.4414 83.654 78.0083 83.654H81.8235H87.4941H100.289H105.96H109.775C112.342 83.654 114.431 85.7419 114.431 88.3082V112.992V112.992Z" fill="#1A3D8A"/>
<path d="M90.8986 101.248L90.1101 108.339C90.0711 108.691 90.1845 109.045 90.4213 109.31C90.6582 109.575 90.9975 109.727 91.3527 109.727H96.3528C96.708 109.727 97.0473 109.575 97.2842 109.31C97.521 109.046 97.6346 108.691 97.5954 108.339L96.8069 101.248C98.0874 100.316 98.8527 98.8428 98.8527 97.2266C98.8527 94.4691 96.6103 92.2266 93.8527 92.2266C91.095 92.2266 88.8527 94.4691 88.8527 97.2266C88.8527 98.8428 89.6181 100.316 90.8986 101.248ZM93.8527 94.7266C95.2308 94.7266 96.3526 95.8485 96.3526 97.2266C96.3526 98.1848 95.8082 99.043 94.9318 99.4678C94.4544 99.6997 94.175 100.205 94.2336 100.731L94.9562 107.227H92.7493L93.472 100.731C93.5305 100.205 93.2511 99.6997 92.7737 99.4678C91.8973 99.043 91.3529 98.1848 91.3529 97.2266C91.3527 95.8485 92.4746 94.7266 93.8527 94.7266Z" fill="#00BF96"/>
<defs>
<filter id="filter0_d_66_716" x="0" y="0" width="188" height="180" filterUnits="userSpaceOnUse" color-interpolation-filters="sRGB">
<feFlood flood-opacity="0" result="BackgroundImageFix"/>
<feColorMatrix in="SourceAlpha" type="matrix" values="0 0 0 0 0 0 0 0 0 0 0 0 0 0 0 0 0 0 127 0" result="hardAlpha"/>
<feOffset/>
<feGaussianBlur stdDeviation="20"/>
<feColorMatrix type="matrix" values="0 0 0 0 0.101961 0 0 0 0 0.239216 0 0 0 0 0.541176 0 0 0 0.2 0"/>
<feBlend mode="normal" in2="BackgroundImageFix" result="effect1_dropShadow_66_716"/>
<feBlend mode="normal" in="SourceGraphic" in2="effect1_dropShadow_66_716" result="shape"/>
</filter>
</defs>
</svg>
