<svg width="188" height="180" viewBox="0 0 188 180" fill="none" xmlns="http://www.w3.org/2000/svg">
<g filter="url(#filter0_d_66_695)">
<rect x="40" y="40" width="108" height="100" rx="15" fill="white"/>
</g>
<path d="M116.144 66.0951L96.6145 60.3355C95.0984 59.8882 93.4949 59.8882 91.9782 60.3355L72.4489 66.095C71.007 66.5202 70 67.8669 70 69.3702V85.5436C70 93.0286 72.2281 100.236 76.4434 106.387C80.5588 112.392 86.2861 117.011 93.0055 119.746C93.4218 119.915 93.8591 120 94.2964 120C94.7338 120 95.1711 119.915 95.5873 119.746C102.307 117.011 108.034 112.392 112.149 106.387C116.365 100.236 118.593 93.0286 118.593 85.5436V69.3703C118.593 67.867 117.586 66.5202 116.144 66.0951ZM115.861 85.5435C115.861 92.4748 113.799 99.1482 109.896 104.842C106.084 110.404 100.78 114.683 94.5578 117.216C94.3893 117.284 94.2038 117.284 94.0352 117.216C87.8127 114.683 82.5087 110.405 78.6967 104.842C74.7945 99.1482 72.7318 92.4749 72.7318 85.5435V69.3702C72.7318 69.0696 72.9332 68.8003 73.2216 68.7152L92.7511 62.9556C93.2566 62.8064 93.7766 62.732 94.2966 62.732C94.8164 62.732 95.3364 62.8065 95.8419 62.9557L115.372 68.7152C115.66 68.8002 115.861 69.0694 115.861 69.3702V85.5435Z" fill="#1A3D8A"/>
<path d="M90.2654 94.8741C90.8222 95.4339 91.5629 95.7422 92.3504 95.7422C93.138 95.7422 93.8783 95.4339 94.4355 94.8741L102.3 86.9723C103.452 85.8145 103.452 83.9405 102.3 82.7827C101.147 81.6248 99.2822 81.6244 98.1295 82.7823L92.3504 88.5893L90.5034 86.7335C89.3515 85.5756 87.486 85.5753 86.3333 86.7335C85.1806 87.8914 85.1806 89.7653 86.3333 90.9236L90.2654 94.8741ZM87.7233 88.1302C88.1077 87.7444 88.729 87.7444 89.113 88.1302L91.655 90.6844C92.039 91.0698 92.6615 91.0698 93.0455 90.6844L99.5195 84.1793C99.9039 83.7935 100.525 83.7935 100.91 84.1793C101.294 84.5652 101.294 85.1894 100.909 85.5756L93.0451 93.4774C92.8592 93.6641 92.6127 93.7671 92.3504 93.7671C92.0882 93.7671 91.8413 93.6641 91.6554 93.4774L87.7233 89.5265C87.3394 89.1407 87.339 88.5164 87.7233 88.1302V88.1302Z" fill="#00BF96"/>
<path d="M109.431 72.1352L94.876 67.8426C94.497 67.731 94.0964 67.7307 93.7172 67.8426L79.1622 72.1352C78.2971 72.3904 77.6928 73.1986 77.6928 74.1004V85.5434C77.6928 91.5901 79.5218 97.3897 82.9819 102.316C85.6646 106.135 89.2492 109.288 93.3481 111.435C93.645 111.591 93.9708 111.668 94.2967 111.668C94.6225 111.668 94.9483 111.591 95.2453 111.435C99.3441 109.289 102.929 106.135 105.611 102.316C109.072 97.3898 110.901 91.5901 110.901 85.5434V74.1004C110.901 73.1983 110.296 72.3903 109.431 72.1352ZM108.169 85.5434C108.169 91.0251 106.512 96.2819 103.376 100.745C101.012 104.111 97.8789 106.905 94.2967 108.845C90.7145 106.905 87.5808 104.111 85.217 100.745C82.0817 96.2819 80.4244 91.0251 80.4244 85.5434V74.611L94.2967 70.5198L108.169 74.611V85.5434Z" fill="#1A3D8A"/>
<defs>
<filter id="filter0_d_66_695" x="0" y="0" width="188" height="180" filterUnits="userSpaceOnUse" color-interpolation-filters="sRGB">
<feFlood flood-opacity="0" result="BackgroundImageFix"/>
<feColorMatrix in="SourceAlpha" type="matrix" values="0 0 0 0 0 0 0 0 0 0 0 0 0 0 0 0 0 0 127 0" result="hardAlpha"/>
<feOffset/>
<feGaussianBlur stdDeviation="20"/>
<feColorMatrix type="matrix" values="0 0 0 0 0.101961 0 0 0 0 0.239216 0 0 0 0 0.541176 0 0 0 0.2 0"/>
<feBlend mode="normal" in2="BackgroundImageFix" result="effect1_dropShadow_66_695"/>
<feBlend mode="normal" in="SourceGraphic" in2="effect1_dropShadow_66_695" result="shape"/>
</filter>
</defs>
</svg>
