<svg width="108" height="103" viewBox="0 0 108 103" fill="none" xmlns="http://www.w3.org/2000/svg">
<g opacity="0.25">
<circle cx="50" cy="48" r="45" fill="url(#paint0_linear_66_624)"/>
</g>
<g opacity="0.15">
<circle cx="45" cy="58" r="45" fill="url(#paint1_linear_66_624)"/>
</g>
<g opacity="0.25">
<circle cx="63" cy="54" r="45" fill="url(#paint2_linear_66_624)"/>
</g>
<g opacity="0.15">
<circle cx="60" cy="45" r="45" fill="url(#paint3_linear_66_624)"/>
</g>
<g opacity="0.4">
<circle cx="54" cy="51" r="40" fill="url(#paint4_linear_66_624)"/>
</g>
<path d="M28.5626 66.972L39.2225 56.2965C39.5854 55.933 40.0678 55.733 40.5811 55.733C40.9361 55.733 41.2753 55.8307 41.5715 56.0101L51.4102 46.1569C51.7172 45.8496 52.2147 45.8496 52.5217 46.1569C52.8285 46.4642 52.8285 46.9626 52.5217 47.2699L42.7241 57.082L44.9152 59.2763L55.8241 48.3512L53.6331 46.1569L52.1733 47.6186C51.8666 47.926 51.3689 47.9259 51.0619 47.6186C50.7551 47.3112 50.7551 46.8129 51.062 46.5056L52.5217 45.0439L48.7231 41.2398L48.4226 41.5408C48.0493 41.9147 47.5528 42.1206 47.0247 42.1206C46.4966 42.1206 46.0002 41.9147 45.6268 41.5408L44.2267 40.1386C43.8534 39.7647 43.6477 39.2675 43.6477 38.7387C43.6477 38.2099 43.8534 37.7127 44.2267 37.3389L54.9697 26.5799C55.343 26.206 55.8394 26 56.3676 26C56.8956 26 57.392 26.2059 57.7653 26.5798L59.1655 27.982C59.5389 28.3559 59.7446 28.853 59.7446 29.382C59.7446 29.9107 59.5389 30.4079 59.1656 30.7818L58.865 31.0828L70.876 43.1116L71.1766 42.8105C71.9473 42.0388 73.2015 42.0388 73.9722 42.8106L75.3723 44.2128C75.7456 44.5867 75.9513 45.0839 75.9513 45.6127C75.9513 46.1415 75.7456 46.6387 75.3723 47.0125L64.6295 57.7713C64.2561 58.1452 63.7597 58.3511 63.2316 58.3511C62.7035 58.3511 62.2072 58.1452 61.8338 57.7713L60.4336 56.3691C59.6631 55.5972 59.6629 54.3414 60.4335 53.5694L60.7341 53.2684L56.9356 49.4644L45.9855 60.4307C46.1646 60.7273 46.2621 61.067 46.2621 61.4225C46.2621 61.9365 46.0623 62.4197 45.6995 62.7831L35.0396 73.4587C34.6767 73.8221 34.1943 74.0222 33.6809 74.0222C33.1678 74.0222 32.6854 73.822 32.3223 73.4587L28.5626 69.6934C28.1997 69.33 27.9999 68.8468 27.9999 68.3328C27.9999 67.8187 28.1997 67.3354 28.5626 66.972ZM58.0541 29.0951L56.6538 27.6929C56.5774 27.6163 56.4756 27.5741 56.3676 27.5741C56.2595 27.5741 56.1577 27.6163 56.0813 27.693L45.3383 38.4517C45.2618 38.5283 45.2196 38.6302 45.2196 38.7384C45.2196 38.8467 45.2617 38.9486 45.3384 39.0253L46.7384 40.4274C46.8914 40.5806 47.1582 40.5807 47.3112 40.4275L58.054 29.6688C58.1305 29.5921 58.1728 29.4903 58.1728 29.382C58.1728 29.2736 58.1305 29.1719 58.0541 29.0951ZM61.545 55.256L62.9453 56.6582C63.0982 56.8114 63.365 56.8114 63.518 56.6582L74.2609 45.8994C74.3374 45.8228 74.3796 45.721 74.3796 45.6127C74.3796 45.5044 74.3375 45.4025 74.2608 45.3258L72.8608 43.9237C72.7818 43.8446 72.6782 43.805 72.5744 43.805C72.4706 43.805 72.367 43.8446 72.2881 43.9237L61.5452 54.6823C61.3873 54.8405 61.3872 55.0977 61.545 55.256ZM57.4914 47.7946L61.8457 52.1553L69.7647 44.2247L57.7535 32.1961L49.8346 40.1266L54.1881 44.4865L54.1891 44.4873L57.4914 47.7946ZM29.6742 68.5801L33.4339 72.3454C33.5229 72.4347 33.6269 72.4479 33.6809 72.4479C33.7351 72.4479 33.8391 72.4347 33.9281 72.3454L44.5879 61.6698C44.677 61.5806 44.6903 61.4765 44.6903 61.4223C44.6903 61.3682 44.6771 61.2641 44.5879 61.1748L44.3593 60.9459L40.8282 57.4095C40.7392 57.3203 40.6353 57.307 40.5811 57.307C40.527 57.307 40.4231 57.3203 40.3341 57.4095L29.6742 68.0851C29.5851 68.1743 29.5717 68.2784 29.5717 68.3326C29.5717 68.3867 29.5851 68.4909 29.6742 68.5801Z" fill="white"/>
<path d="M49.9861 69.0234H51.1903V64.8757C51.1903 63.9505 51.9418 63.1978 52.8657 63.1978H72.2449C72.679 63.1978 73.0308 63.5502 73.0308 63.9848C73.0308 64.4195 72.679 64.7719 72.2449 64.7719H52.8657C52.8086 64.7719 52.7621 64.8185 52.7621 64.8756V69.0233H73.6443V64.8756C73.6443 64.8184 73.5978 64.7719 73.5407 64.7719H71.3509C70.9168 64.7719 70.565 64.4195 70.565 63.9848C70.565 63.5502 70.9168 63.1978 71.3509 63.1978H73.5407C74.4646 63.1978 75.2161 63.9505 75.2161 64.8757V69.0234H76.4202C78.3026 69.0234 79.834 70.5571 79.834 72.4423V74.6833C79.834 75.4095 79.2442 76.0002 78.5192 76.0002H47.8872C47.1621 76.0002 46.5723 75.4095 46.5723 74.6833V72.4423C46.5723 70.5571 48.1037 69.0234 49.9861 69.0234ZM48.144 74.426H78.2622V72.4423C78.2622 71.4252 77.4359 70.5975 76.4202 70.5975H49.986C48.9704 70.5975 48.144 71.4251 48.144 72.4423V74.426Z" fill="white"/>
<defs>
<linearGradient id="paint0_linear_66_624" x1="81.5" y1="18.6959" x2="16.8125" y2="77.1959" gradientUnits="userSpaceOnUse">
<stop stop-color="#9EBCFF"/>
<stop offset="1" stop-color="#00BF96"/>
</linearGradient>
<linearGradient id="paint1_linear_66_624" x1="76.5" y1="28.6959" x2="11.8125" y2="87.1959" gradientUnits="userSpaceOnUse">
<stop stop-color="#9EBCFF"/>
<stop offset="1" stop-color="#00BF96"/>
</linearGradient>
<linearGradient id="paint2_linear_66_624" x1="94.5" y1="24.6959" x2="29.8125" y2="83.1959" gradientUnits="userSpaceOnUse">
<stop stop-color="#9EBCFF"/>
<stop offset="1" stop-color="#00BF96"/>
</linearGradient>
<linearGradient id="paint3_linear_66_624" x1="91.5" y1="15.6959" x2="26.8125" y2="74.1959" gradientUnits="userSpaceOnUse">
<stop stop-color="#9EBCFF"/>
<stop offset="1" stop-color="#00BF96"/>
</linearGradient>
<linearGradient id="paint4_linear_66_624" x1="82" y1="24.9519" x2="24.5" y2="76.9519" gradientUnits="userSpaceOnUse">
<stop stop-color="#1A3D8A"/>
<stop offset="1" stop-color="#00BF96"/>
</linearGradient>
</defs>
</svg>
