<svg width="759" height="555" viewBox="0 0 759 555" fill="none" xmlns="http://www.w3.org/2000/svg">
<circle cx="379" cy="93" r="13" stroke="white" stroke-width="2"/>
<circle cx="379" cy="93" r="3" fill="white" stroke="white" stroke-width="2"/>
<circle cx="379" cy="188" r="13" stroke="white" stroke-width="2"/>
<circle cx="379" cy="188" r="4" fill="white"/>
<circle cx="379" cy="283" r="13" stroke="white" stroke-width="2"/>
<circle cx="378.733" cy="282.734" r="3.73333" fill="white"/>
<circle cx="379" cy="377" r="13" stroke="white" stroke-width="2"/>
<circle cx="378.733" cy="376.734" r="3.73333" fill="white"/>
<circle cx="379" cy="471" r="13" stroke="white" stroke-width="2"/>
<circle cx="379" cy="471" r="3.73333" fill="white"/>
<rect x="378" y="235" width="235" height="2" transform="rotate(-90 378 235)" fill="url(#paint0_linear_66_473)"/>
<g filter="url(#filter0_d_66_473)">
<rect x="40" y="140" width="295" height="92" rx="15" fill="#1D4396"/>
<rect x="40" y="140" width="295" height="92" rx="15" fill="url(#paint1_linear_66_473)"/>
</g>
<path d="M118.8 165H120.36V177.58H123.04V165H124.6V177.58H127.28V165H128.82V179H118.8V165ZM135.541 176.18H132.001L131.461 179H130.021L132.701 165H134.961L137.641 179H136.081L135.541 176.18ZM133.741 166.76L132.201 174.84H135.321L133.741 166.76ZM144.459 166.42H140.419V179H138.879V165H144.459V166.42ZM149.873 165.82C150.393 165.18 151.18 164.86 152.233 164.86C153.286 164.86 154.073 165.173 154.593 165.8C155.126 166.427 155.393 167.293 155.393 168.4C155.393 169.173 155.226 169.913 154.893 170.62C154.573 171.327 154.18 171.947 153.713 172.48C153.246 173 152.78 173.513 152.313 174.02C151.86 174.513 151.466 175.047 151.133 175.62C150.8 176.193 150.633 176.773 150.633 177.36V177.58H155.233V179H149.093V177.8C149.093 176.973 149.253 176.207 149.573 175.5C149.906 174.793 150.3 174.187 150.753 173.68C151.22 173.16 151.686 172.66 152.153 172.18C152.62 171.687 153.013 171.127 153.333 170.5C153.666 169.86 153.833 169.18 153.833 168.46C153.833 166.993 153.286 166.26 152.193 166.26C151.1 166.26 150.553 166.947 150.553 168.32V169.56H149.093V168.42C149.093 167.313 149.353 166.447 149.873 165.82Z" fill="#00BF96"/>
<path d="M129.884 207H128.094V194.958H121.433V207H119.651V193.492H129.884V207ZM132.408 201.888C132.408 200.905 132.599 200.02 132.983 199.235C133.373 198.449 133.911 197.843 134.597 197.417C135.29 196.99 136.078 196.776 136.963 196.776C138.33 196.776 139.434 197.25 140.275 198.196C141.122 199.142 141.546 200.401 141.546 201.972V202.092C141.546 203.069 141.357 203.948 140.98 204.727C140.609 205.5 140.074 206.103 139.375 206.536C138.682 206.969 137.884 207.186 136.981 207.186C135.621 207.186 134.517 206.712 133.669 205.766C132.828 204.82 132.408 203.567 132.408 202.009V201.888ZM134.133 202.092C134.133 203.206 134.39 204.099 134.903 204.773C135.423 205.448 136.116 205.785 136.981 205.785C137.854 205.785 138.546 205.444 139.06 204.764C139.573 204.078 139.83 203.119 139.83 201.888C139.83 200.787 139.567 199.897 139.041 199.216C138.521 198.53 137.829 198.187 136.963 198.187C136.116 198.187 135.432 198.524 134.913 199.198C134.393 199.872 134.133 200.837 134.133 202.092ZM142.947 205.599L143.541 204.866C144.208 204 144.589 202.701 144.682 200.97L144.839 196.962H151.306V205.599H152.595V209.95H150.879V207H143.875V209.95H142.158L142.167 205.599H142.947ZM144.979 205.599H149.589V198.548H146.5L146.398 200.942C146.293 202.94 145.82 204.492 144.979 205.599ZM161.771 198.354H158.403V207H156.687V198.354H153.384V196.962H161.771V198.354ZM163.598 207V196.962H167.513C168.849 196.962 169.873 197.197 170.584 197.667C171.301 198.131 171.66 198.814 171.66 199.717C171.66 200.181 171.521 200.602 171.243 200.979C170.964 201.35 170.553 201.635 170.009 201.833C170.615 201.975 171.1 202.253 171.465 202.667C171.836 203.082 172.022 203.577 172.022 204.152C172.022 205.073 171.682 205.778 171.001 206.267C170.327 206.756 169.372 207 168.135 207H163.598ZM165.314 202.593V205.618H168.153C168.871 205.618 169.406 205.485 169.758 205.219C170.117 204.953 170.296 204.579 170.296 204.096C170.296 203.094 169.56 202.593 168.088 202.593H165.314ZM165.314 201.22H167.532C169.14 201.22 169.944 200.75 169.944 199.81C169.944 198.87 169.183 198.384 167.662 198.354H165.314V201.22ZM178.46 207.186C177.1 207.186 175.993 206.74 175.139 205.85C174.286 204.953 173.859 203.756 173.859 202.259V201.944C173.859 200.948 174.048 200.061 174.425 199.281C174.808 198.496 175.34 197.883 176.021 197.444C176.707 196.999 177.449 196.776 178.247 196.776C179.552 196.776 180.566 197.206 181.29 198.066C182.014 198.926 182.375 200.156 182.375 201.758V202.473H175.575C175.6 203.462 175.888 204.263 176.438 204.875C176.995 205.482 177.7 205.785 178.553 205.785C179.159 205.785 179.673 205.661 180.093 205.414C180.514 205.166 180.882 204.838 181.197 204.43L182.246 205.247C181.404 206.539 180.143 207.186 178.46 207.186ZM178.247 198.187C177.554 198.187 176.973 198.44 176.503 198.947C176.033 199.448 175.742 200.153 175.631 201.062H180.659V200.933C180.61 200.061 180.375 199.386 179.954 198.91C179.534 198.428 178.965 198.187 178.247 198.187ZM192.85 202.092C192.85 203.62 192.5 204.851 191.801 205.785C191.102 206.719 190.156 207.186 188.962 207.186C187.744 207.186 186.785 206.799 186.086 206.026V210.859H184.37V196.962H185.938L186.021 198.075C186.72 197.209 187.691 196.776 188.935 196.776C190.141 196.776 191.093 197.231 191.792 198.14C192.497 199.049 192.85 200.314 192.85 201.935V202.092ZM191.133 201.897C191.133 200.766 190.892 199.872 190.41 199.216C189.927 198.561 189.265 198.233 188.424 198.233C187.385 198.233 186.606 198.694 186.086 199.615V204.412C186.6 205.327 187.385 205.785 188.443 205.785C189.265 205.785 189.918 205.46 190.4 204.811C190.889 204.155 191.133 203.184 191.133 201.897ZM202.897 202.64H201.691V207H199.975V202.64H198.769L195.958 207H193.787L197.377 201.805L194.13 196.962H196.208L198.796 201.118H199.975V196.962H201.691V201.118H202.86L205.467 196.962H207.545L204.289 201.814L207.879 207H205.708L202.897 202.64ZM209.354 205.599L209.948 204.866C210.616 204 210.996 202.701 211.089 200.97L211.247 196.962H217.713V205.599H219.002V209.95H217.286V207H210.282V209.95H208.565L208.575 205.599H209.354ZM211.386 205.599H215.997V198.548H212.907L212.805 200.942C212.7 202.94 212.227 204.492 211.386 205.599ZM227.102 207C227.003 206.802 226.922 206.45 226.86 205.942C226.062 206.771 225.11 207.186 224.003 207.186C223.013 207.186 222.2 206.907 221.563 206.351C220.932 205.788 220.617 205.076 220.617 204.217C220.617 203.172 221.013 202.361 221.804 201.786C222.602 201.205 223.722 200.914 225.163 200.914H226.833V200.125C226.833 199.526 226.653 199.049 226.294 198.697C225.936 198.338 225.407 198.159 224.708 198.159C224.096 198.159 223.582 198.313 223.168 198.623C222.754 198.932 222.546 199.306 222.546 199.745H220.821C220.821 199.244 220.997 198.762 221.35 198.298C221.708 197.828 222.191 197.457 222.797 197.185C223.409 196.912 224.08 196.776 224.81 196.776C225.967 196.776 226.873 197.067 227.528 197.648C228.184 198.224 228.524 199.018 228.549 200.033V204.653C228.549 205.574 228.666 206.307 228.901 206.852V207H227.102ZM224.253 205.692C224.792 205.692 225.302 205.553 225.784 205.274C226.267 204.996 226.616 204.634 226.833 204.189V202.129H225.487C223.384 202.129 222.333 202.745 222.333 203.976C222.333 204.514 222.512 204.934 222.871 205.237C223.23 205.54 223.691 205.692 224.253 205.692ZM235.405 207.186C234.044 207.186 232.937 206.74 232.083 205.85C231.23 204.953 230.803 203.756 230.803 202.259V201.944C230.803 200.948 230.992 200.061 231.369 199.281C231.753 198.496 232.285 197.883 232.965 197.444C233.651 196.999 234.394 196.776 235.191 196.776C236.496 196.776 237.511 197.206 238.234 198.066C238.958 198.926 239.32 200.156 239.32 201.758V202.473H232.52C232.544 203.462 232.832 204.263 233.382 204.875C233.939 205.482 234.644 205.785 235.498 205.785C236.104 205.785 236.617 205.661 237.038 205.414C237.458 205.166 237.826 204.838 238.142 204.43L239.19 205.247C238.349 206.539 237.087 207.186 235.405 207.186ZM235.191 198.187C234.499 198.187 233.917 198.44 233.447 198.947C232.977 199.448 232.687 200.153 232.575 201.062H237.604V200.933C237.554 200.061 237.319 199.386 236.898 198.91C236.478 198.428 235.909 198.187 235.191 198.187ZM248.662 198.354H245.294V207H243.578V198.354H240.275V196.962H248.662V198.354ZM253.755 207.186C252.395 207.186 251.288 206.74 250.434 205.85C249.581 204.953 249.154 203.756 249.154 202.259V201.944C249.154 200.948 249.342 200.061 249.72 199.281C250.103 198.496 250.635 197.883 251.315 197.444C252.002 196.999 252.744 196.776 253.542 196.776C254.847 196.776 255.861 197.206 256.585 198.066C257.309 198.926 257.67 200.156 257.67 201.758V202.473H250.87C250.895 203.462 251.182 204.263 251.733 204.875C252.29 205.482 252.995 205.785 253.848 205.785C254.454 205.785 254.968 205.661 255.388 205.414C255.809 205.166 256.177 204.838 256.492 204.43L257.541 205.247C256.699 206.539 255.438 207.186 253.755 207.186ZM253.542 198.187C252.849 198.187 252.268 198.44 251.798 198.947C251.328 199.448 251.037 200.153 250.926 201.062H255.954V200.933C255.905 200.061 255.67 199.386 255.249 198.91C254.828 198.428 254.259 198.187 253.542 198.187ZM269.898 199.708C269.898 199.238 269.719 198.867 269.36 198.595C269.001 198.316 268.509 198.177 267.885 198.177C267.279 198.177 266.771 198.335 266.363 198.65C265.961 198.966 265.76 199.337 265.76 199.764H264.053C264.053 198.892 264.418 198.177 265.148 197.621C265.878 197.064 266.79 196.786 267.885 196.786C269.06 196.786 269.975 197.039 270.631 197.546C271.286 198.047 271.614 198.765 271.614 199.699C271.614 200.15 271.478 200.565 271.206 200.942C270.934 201.319 270.547 201.619 270.046 201.842C271.215 202.238 271.8 203.017 271.8 204.18C271.8 205.101 271.444 205.831 270.733 206.369C270.022 206.907 269.072 207.176 267.885 207.176C266.728 207.176 265.773 206.895 265.018 206.332C264.27 205.763 263.896 204.996 263.896 204.031H265.603C265.603 204.52 265.819 204.94 266.252 205.293C266.691 205.639 267.235 205.812 267.885 205.812C268.54 205.812 269.069 205.661 269.471 205.358C269.873 205.055 270.074 204.662 270.074 204.18C270.074 203.617 269.904 203.215 269.564 202.974C269.23 202.726 268.707 202.603 267.996 202.603H266.28V201.155H268.145C269.313 201.124 269.898 200.642 269.898 199.708ZM280.224 207C280.125 206.802 280.044 206.45 279.982 205.942C279.185 206.771 278.232 207.186 277.125 207.186C276.135 207.186 275.322 206.907 274.685 206.351C274.054 205.788 273.739 205.076 273.739 204.217C273.739 203.172 274.135 202.361 274.926 201.786C275.724 201.205 276.844 200.914 278.285 200.914H279.955V200.125C279.955 199.526 279.775 199.049 279.417 198.697C279.058 198.338 278.529 198.159 277.83 198.159C277.218 198.159 276.704 198.313 276.29 198.623C275.876 198.932 275.668 199.306 275.668 199.745H273.943C273.943 199.244 274.119 198.762 274.472 198.298C274.83 197.828 275.313 197.457 275.919 197.185C276.531 196.912 277.202 196.776 277.932 196.776C279.089 196.776 279.995 197.067 280.65 197.648C281.306 198.224 281.646 199.018 281.671 200.033V204.653C281.671 205.574 281.788 206.307 282.023 206.852V207H280.224ZM277.375 205.692C277.914 205.692 278.424 205.553 278.906 205.274C279.389 204.996 279.738 204.634 279.955 204.189V202.129H278.609C276.507 202.129 275.455 202.745 275.455 203.976C275.455 204.514 275.634 204.934 275.993 205.237C276.352 205.54 276.813 205.692 277.375 205.692ZM287.488 202.723H286.235V207H284.51V196.962H286.235V201.211H287.358L290.735 196.962H292.813L288.842 201.786L293.147 207H290.967L287.488 202.723ZM300.819 207C300.72 206.802 300.64 206.45 300.578 205.942C299.78 206.771 298.828 207.186 297.721 207.186C296.731 207.186 295.918 206.907 295.281 206.351C294.65 205.788 294.334 205.076 294.334 204.217C294.334 203.172 294.73 202.361 295.522 201.786C296.32 201.205 297.439 200.914 298.88 200.914H300.55V200.125C300.55 199.526 300.371 199.049 300.012 198.697C299.653 198.338 299.125 198.159 298.426 198.159C297.813 198.159 297.3 198.313 296.886 198.623C296.471 198.932 296.264 199.306 296.264 199.745H294.539C294.539 199.244 294.715 198.762 295.067 198.298C295.426 197.828 295.909 197.457 296.515 197.185C297.127 196.912 297.798 196.776 298.528 196.776C299.684 196.776 300.59 197.067 301.246 197.648C301.902 198.224 302.242 199.018 302.267 200.033V204.653C302.267 205.574 302.384 206.307 302.619 206.852V207H300.819ZM297.971 205.692C298.509 205.692 299.02 205.553 299.502 205.274C299.984 204.996 300.334 204.634 300.55 204.189V202.129H299.205C297.102 202.129 296.051 202.745 296.051 203.976C296.051 204.514 296.23 204.934 296.589 205.237C296.948 205.54 297.408 205.692 297.971 205.692ZM310.477 199.708C310.477 199.238 310.298 198.867 309.939 198.595C309.58 198.316 309.089 198.177 308.464 198.177C307.858 198.177 307.351 198.335 306.942 198.65C306.54 198.966 306.339 199.337 306.339 199.764H304.632C304.632 198.892 304.997 198.177 305.727 197.621C306.457 197.064 307.369 196.786 308.464 196.786C309.639 196.786 310.554 197.039 311.21 197.546C311.866 198.047 312.193 198.765 312.193 199.699C312.193 200.15 312.057 200.565 311.785 200.942C311.513 201.319 311.126 201.619 310.625 201.842C311.794 202.238 312.379 203.017 312.379 204.18C312.379 205.101 312.023 205.831 311.312 206.369C310.601 206.907 309.651 207.176 308.464 207.176C307.307 207.176 306.352 206.895 305.597 206.332C304.849 205.763 304.475 204.996 304.475 204.031H306.182C306.182 204.52 306.398 204.94 306.831 205.293C307.27 205.639 307.814 205.812 308.464 205.812C309.119 205.812 309.648 205.661 310.05 205.358C310.452 205.055 310.653 204.662 310.653 204.18C310.653 203.617 310.483 203.215 310.143 202.974C309.809 202.726 309.286 202.603 308.575 202.603H306.859V201.155H308.724C309.893 201.124 310.477 200.642 310.477 199.708Z" fill="white"/>
<rect x="324" y="187.606" width="15" height="15" transform="rotate(-45 324 187.606)" fill="#1D4396"/>
<g filter="url(#filter1_d_66_473)">
<rect x="40" y="329" width="295" height="92" rx="15" fill="#1D4396"/>
<rect x="40" y="329" width="295" height="92" rx="15" fill="url(#paint2_linear_66_473)"/>
</g>
<path d="M118.8 354H120.36V366.58H123.04V354H124.6V366.58H127.28V354H128.82V368H118.8V354ZM135.541 365.18H132.001L131.461 368H130.021L132.701 354H134.961L137.641 368H136.081L135.541 365.18ZM133.741 355.76L132.201 363.84H135.321L133.741 355.76ZM144.459 355.42H140.419V368H138.879V354H144.459V355.42ZM155.893 365.18H154.773V368H153.253V365.18H148.733V363.76L153.073 354H154.773V363.76H155.893V365.18ZM153.253 356.92L150.173 363.76H153.253V356.92Z" fill="#00BF96"/>
<path d="M129.958 389.682C129.958 391.006 129.736 392.162 129.291 393.152C128.845 394.135 128.214 394.887 127.398 395.406C126.582 395.926 125.629 396.186 124.541 396.186C123.477 396.186 122.534 395.926 121.711 395.406C120.888 394.881 120.248 394.135 119.791 393.17C119.339 392.199 119.107 391.077 119.095 389.803V388.829C119.095 387.53 119.32 386.382 119.772 385.387C120.223 384.391 120.861 383.63 121.683 383.104C122.512 382.573 123.458 382.307 124.522 382.307C125.604 382.307 126.557 382.569 127.379 383.095C128.208 383.615 128.845 384.372 129.291 385.368C129.736 386.358 129.958 387.511 129.958 388.829V389.682ZM128.187 388.81C128.187 387.208 127.865 385.98 127.222 385.127C126.578 384.267 125.679 383.837 124.522 383.837C123.396 383.837 122.509 384.267 121.859 385.127C121.216 385.98 120.885 387.168 120.867 388.689V389.682C120.867 391.235 121.191 392.456 121.841 393.347C122.496 394.231 123.396 394.673 124.541 394.673C125.691 394.673 126.582 394.256 127.212 393.421C127.843 392.58 128.168 391.377 128.187 389.812V388.81ZM140.572 396H138.855V387.381H134.235V396H132.51V385.962H140.572V396ZM151.556 385.962V396H149.831V387.381H146.417L146.212 391.139C146.101 392.864 145.81 394.098 145.34 394.84C144.876 395.583 144.137 395.969 143.123 396H142.437V394.488L142.928 394.451C143.485 394.389 143.884 394.067 144.125 393.486C144.366 392.904 144.521 391.828 144.589 390.257L144.774 385.962H151.556ZM160.509 396C160.41 395.802 160.329 395.45 160.268 394.942C159.47 395.771 158.517 396.186 157.41 396.186C156.421 396.186 155.607 395.907 154.97 395.351C154.339 394.788 154.024 394.076 154.024 393.217C154.024 392.172 154.42 391.361 155.211 390.786C156.009 390.205 157.129 389.914 158.57 389.914H160.24V389.125C160.24 388.526 160.06 388.049 159.702 387.697C159.343 387.338 158.814 387.159 158.115 387.159C157.503 387.159 156.99 387.313 156.575 387.623C156.161 387.932 155.954 388.306 155.954 388.745H154.228C154.228 388.244 154.404 387.762 154.757 387.298C155.116 386.828 155.598 386.457 156.204 386.185C156.816 385.912 157.487 385.776 158.217 385.776C159.374 385.776 160.28 386.067 160.936 386.648C161.591 387.224 161.931 388.018 161.956 389.033V393.653C161.956 394.574 162.074 395.307 162.309 395.852V396H160.509ZM157.661 394.692C158.199 394.692 158.709 394.553 159.191 394.274C159.674 393.996 160.023 393.634 160.24 393.189V391.129H158.895C156.792 391.129 155.74 391.745 155.74 392.976C155.74 393.514 155.92 393.934 156.278 394.237C156.637 394.54 157.098 394.692 157.661 394.692ZM172.226 396H170.5V392.363C169.746 392.561 168.973 392.66 168.181 392.66C166.926 392.66 165.967 392.339 165.305 391.695C164.65 391.052 164.316 390.137 164.303 388.949V385.953H166.02V389.005C166.05 390.502 166.771 391.25 168.181 391.25C168.973 391.25 169.746 391.151 170.5 390.953V385.962H172.226V396ZM181.476 385.962H183.192V396H181.476V388.68L176.846 396H175.13V385.962H176.846V393.291L181.476 385.962ZM186.105 396V385.962H190.02C191.356 385.962 192.38 386.197 193.091 386.667C193.808 387.131 194.167 387.814 194.167 388.717C194.167 389.181 194.028 389.602 193.75 389.979C193.471 390.35 193.06 390.635 192.516 390.833C193.122 390.975 193.607 391.253 193.972 391.667C194.343 392.082 194.529 392.577 194.529 393.152C194.529 394.073 194.189 394.778 193.508 395.267C192.834 395.756 191.879 396 190.642 396H186.105ZM187.821 391.593V394.618H190.66C191.378 394.618 191.913 394.485 192.265 394.219C192.624 393.953 192.803 393.579 192.803 393.096C192.803 392.094 192.067 391.593 190.595 391.593H187.821ZM187.821 390.22H190.039C191.647 390.22 192.451 389.75 192.451 388.81C192.451 387.87 191.69 387.384 190.168 387.354H187.821V390.22ZM202.999 396C202.9 395.802 202.82 395.45 202.758 394.942C201.96 395.771 201.007 396.186 199.9 396.186C198.911 396.186 198.097 395.907 197.46 395.351C196.83 394.788 196.514 394.076 196.514 393.217C196.514 392.172 196.91 391.361 197.702 390.786C198.5 390.205 199.619 389.914 201.06 389.914H202.73V389.125C202.73 388.526 202.551 388.049 202.192 387.697C201.833 387.338 201.304 387.159 200.605 387.159C199.993 387.159 199.48 387.313 199.065 387.623C198.651 387.932 198.444 388.306 198.444 388.745H196.718C196.718 388.244 196.895 387.762 197.247 387.298C197.606 386.828 198.088 386.457 198.694 386.185C199.307 385.912 199.978 385.776 200.708 385.776C201.864 385.776 202.77 386.067 203.426 386.648C204.081 387.224 204.422 388.018 204.446 389.033V393.653C204.446 394.574 204.564 395.307 204.799 395.852V396H202.999ZM200.151 394.692C200.689 394.692 201.199 394.553 201.682 394.274C202.164 393.996 202.514 393.634 202.73 393.189V391.129H201.385C199.282 391.129 198.23 391.745 198.23 392.976C198.23 393.514 198.41 393.934 198.769 394.237C199.127 394.54 199.588 394.692 200.151 394.692ZM211.302 396.186C209.942 396.186 208.834 395.74 207.981 394.85C207.127 393.953 206.701 392.756 206.701 391.259V390.944C206.701 389.948 206.889 389.061 207.267 388.281C207.65 387.496 208.182 386.883 208.862 386.444C209.549 385.999 210.291 385.776 211.089 385.776C212.394 385.776 213.408 386.206 214.132 387.066C214.855 387.926 215.217 389.156 215.217 390.758V391.473H208.417C208.442 392.462 208.729 393.263 209.28 393.875C209.836 394.482 210.542 394.785 211.395 394.785C212.001 394.785 212.514 394.661 212.935 394.414C213.356 394.166 213.724 393.838 214.039 393.43L215.087 394.247C214.246 395.539 212.985 396.186 211.302 396.186ZM211.089 387.187C210.396 387.187 209.815 387.44 209.345 387.947C208.875 388.448 208.584 389.153 208.473 390.062H213.501V389.933C213.451 389.061 213.216 388.386 212.796 387.91C212.375 387.428 211.806 387.187 211.089 387.187ZM224.56 387.354H221.192V396H219.476V387.354H216.173V385.962H224.56V387.354ZM229.653 396.186C228.292 396.186 227.185 395.74 226.332 394.85C225.478 393.953 225.051 392.756 225.051 391.259V390.944C225.051 389.948 225.24 389.061 225.617 388.281C226.001 387.496 226.533 386.883 227.213 386.444C227.899 385.999 228.642 385.776 229.439 385.776C230.744 385.776 231.759 386.206 232.482 387.066C233.206 387.926 233.568 389.156 233.568 390.758V391.473H226.768C226.792 392.462 227.08 393.263 227.63 393.875C228.187 394.482 228.892 394.785 229.746 394.785C230.352 394.785 230.865 394.661 231.286 394.414C231.706 394.166 232.074 393.838 232.39 393.43L233.438 394.247C232.597 395.539 231.335 396.186 229.653 396.186ZM229.439 387.187C228.747 387.187 228.165 387.44 227.695 387.947C227.225 388.448 226.935 389.153 226.823 390.062H231.852V389.933C231.802 389.061 231.567 388.386 231.146 387.91C230.726 387.428 230.157 387.187 229.439 387.187ZM244.302 394.785C244.914 394.785 245.449 394.599 245.907 394.228C246.364 393.857 246.618 393.393 246.667 392.836H248.291C248.26 393.412 248.062 393.959 247.697 394.479C247.332 394.998 246.844 395.412 246.231 395.722C245.625 396.031 244.982 396.186 244.302 396.186C242.935 396.186 241.846 395.731 241.036 394.822C240.232 393.906 239.83 392.657 239.83 391.074V390.786C239.83 389.809 240.009 388.94 240.368 388.179C240.727 387.418 241.24 386.828 241.908 386.407C242.582 385.987 243.377 385.776 244.292 385.776C245.418 385.776 246.352 386.113 247.094 386.788C247.843 387.462 248.242 388.337 248.291 389.413H246.667C246.618 388.764 246.371 388.232 245.925 387.817C245.486 387.397 244.942 387.187 244.292 387.187C243.42 387.187 242.743 387.502 242.261 388.133C241.785 388.757 241.546 389.664 241.546 390.851V391.176C241.546 392.332 241.785 393.223 242.261 393.848C242.737 394.472 243.417 394.785 244.302 394.785ZM257.8 396H256.075V392.363C255.32 392.561 254.547 392.66 253.755 392.66C252.5 392.66 251.541 392.339 250.879 391.695C250.224 391.052 249.89 390.137 249.877 388.949V385.953H251.594V389.005C251.625 390.502 252.345 391.25 253.755 391.25C254.547 391.25 255.32 391.151 256.075 390.953V385.962H257.8V396ZM264.721 396.186C263.361 396.186 262.253 395.74 261.4 394.85C260.546 393.953 260.12 392.756 260.12 391.259V390.944C260.12 389.948 260.308 389.061 260.686 388.281C261.069 387.496 261.601 386.883 262.281 386.444C262.968 385.999 263.71 385.776 264.508 385.776C265.813 385.776 266.827 386.206 267.551 387.066C268.274 387.926 268.636 389.156 268.636 390.758V391.473H261.836C261.861 392.462 262.148 393.263 262.699 393.875C263.255 394.482 263.96 394.785 264.814 394.785C265.42 394.785 265.933 394.661 266.354 394.414C266.775 394.166 267.143 393.838 267.458 393.43L268.506 394.247C267.665 395.539 266.403 396.186 264.721 396.186ZM264.508 387.187C263.815 387.187 263.234 387.44 262.764 387.947C262.294 388.448 262.003 389.153 261.892 390.062H266.92V389.933C266.87 389.061 266.635 388.386 266.215 387.91C265.794 387.428 265.225 387.187 264.508 387.187ZM277.979 387.354H274.611V396H272.895V387.354H269.592V385.962H277.979V387.354Z" fill="white"/>
<rect x="324" y="376.606" width="15" height="15" transform="rotate(-45 324 376.606)" fill="#1D4396"/>
<g filter="url(#filter2_d_66_473)">
<rect width="295" height="92" rx="15" transform="matrix(-1 0 0 1 718.213 45)" fill="#1D4396"/>
<rect width="295" height="92" rx="15" transform="matrix(-1 0 0 1 718.213 45)" fill="url(#paint3_linear_66_473)"/>
</g>
<path d="M491.8 70H493.36V82.58H496.04V70H497.6V82.58H500.28V70H501.82V84H491.8V70ZM508.541 81.18H505.001L504.461 84H503.021L505.701 70H507.961L510.641 84H509.081L508.541 81.18ZM506.741 71.76L505.201 79.84H508.321L506.741 71.76ZM517.459 71.42H513.419V84H511.879V70H517.459V71.42ZM524.953 84V72.54C524.366 72.9 523.72 73.1 523.013 73.14V71.86C523.706 71.8333 524.226 71.66 524.573 71.34C524.92 71.02 525.2 70.5733 525.413 70H526.493V84H524.953Z" fill="#00BF96"/>
<path d="M502.958 105.682C502.958 107.006 502.736 108.162 502.291 109.152C501.845 110.135 501.214 110.887 500.398 111.406C499.582 111.926 498.629 112.186 497.541 112.186C496.477 112.186 495.534 111.926 494.711 111.406C493.888 110.881 493.248 110.135 492.791 109.17C492.339 108.199 492.107 107.077 492.095 105.803V104.829C492.095 103.53 492.32 102.382 492.772 101.387C493.223 100.391 493.861 99.6302 494.683 99.1045C495.512 98.5726 496.458 98.3066 497.522 98.3066C498.604 98.3066 499.557 98.5695 500.379 99.0952C501.208 99.6147 501.845 100.372 502.291 101.368C502.736 102.358 502.958 103.511 502.958 104.829V105.682ZM501.187 104.81C501.187 103.208 500.865 101.98 500.222 101.127C499.578 100.267 498.679 99.8374 497.522 99.8374C496.396 99.8374 495.509 100.267 494.859 101.127C494.216 101.98 493.885 103.168 493.867 104.689V105.682C493.867 107.235 494.191 108.456 494.841 109.347C495.496 110.231 496.396 110.673 497.541 110.673C498.691 110.673 499.582 110.256 500.212 109.421C500.843 108.58 501.168 107.377 501.187 105.812V104.81ZM509.388 110.785C510 110.785 510.535 110.599 510.993 110.228C511.45 109.857 511.704 109.393 511.753 108.836H513.377C513.346 109.412 513.148 109.959 512.783 110.479C512.418 110.998 511.93 111.412 511.317 111.722C510.711 112.031 510.068 112.186 509.388 112.186C508.021 112.186 506.932 111.731 506.122 110.822C505.318 109.906 504.916 108.657 504.916 107.074V106.786C504.916 105.809 505.095 104.94 505.454 104.179C505.813 103.418 506.326 102.828 506.994 102.407C507.668 101.987 508.463 101.776 509.378 101.776C510.504 101.776 511.438 102.113 512.18 102.788C512.929 103.462 513.327 104.337 513.377 105.413H511.753C511.704 104.764 511.457 104.232 511.011 103.817C510.572 103.397 510.028 103.187 509.378 103.187C508.506 103.187 507.829 103.502 507.347 104.133C506.87 104.757 506.632 105.664 506.632 106.851V107.176C506.632 108.332 506.87 109.223 507.347 109.848C507.823 110.472 508.503 110.785 509.388 110.785ZM522.766 103.354H519.398V112H517.682V103.354H514.379V101.962H522.766V103.354ZM530.484 112C530.385 111.802 530.305 111.45 530.243 110.942C529.445 111.771 528.493 112.186 527.386 112.186C526.396 112.186 525.583 111.907 524.946 111.351C524.315 110.788 524 110.076 524 109.217C524 108.172 524.395 107.361 525.187 106.786C525.985 106.205 527.104 105.914 528.545 105.914H530.215V105.125C530.215 104.526 530.036 104.049 529.677 103.697C529.319 103.338 528.79 103.159 528.091 103.159C527.479 103.159 526.965 103.313 526.551 103.623C526.136 103.932 525.929 104.306 525.929 104.745H524.204C524.204 104.244 524.38 103.762 524.732 103.298C525.091 102.828 525.574 102.457 526.18 102.185C526.792 101.912 527.463 101.776 528.193 101.776C529.349 101.776 530.256 102.067 530.911 102.648C531.567 103.224 531.907 104.018 531.932 105.033V109.653C531.932 110.574 532.049 111.307 532.284 111.852V112H530.484ZM527.636 110.692C528.174 110.692 528.685 110.553 529.167 110.274C529.649 109.996 529.999 109.634 530.215 109.189V107.129H528.87C526.767 107.129 525.716 107.745 525.716 108.976C525.716 109.514 525.895 109.934 526.254 110.237C526.613 110.54 527.073 110.692 527.636 110.692ZM534.78 112V101.962H538.695C540.031 101.962 541.054 102.197 541.766 102.667C542.483 103.131 542.842 103.814 542.842 104.717C542.842 105.181 542.703 105.602 542.424 105.979C542.146 106.35 541.735 106.635 541.19 106.833C541.797 106.975 542.282 107.253 542.647 107.667C543.018 108.082 543.204 108.577 543.204 109.152C543.204 110.073 542.863 110.778 542.183 111.267C541.509 111.756 540.553 112 539.316 112H534.78ZM536.496 107.593V110.618H539.335C540.052 110.618 540.587 110.485 540.94 110.219C541.299 109.953 541.478 109.579 541.478 109.096C541.478 108.094 540.742 107.593 539.27 107.593H536.496ZM536.496 106.22H538.713C540.321 106.22 541.125 105.75 541.125 104.81C541.125 103.87 540.365 103.384 538.843 103.354H536.496V106.22ZM553.706 101.962V112H551.98V103.381H548.566L548.362 107.139C548.25 108.864 547.96 110.098 547.49 110.84C547.026 111.583 546.287 111.969 545.272 112H544.586V110.488L545.078 110.451C545.634 110.389 546.033 110.067 546.274 109.486C546.516 108.904 546.67 107.828 546.738 106.257L546.924 101.962H553.706ZM564.133 101.962V112H562.408V108.094H559.819L557.454 112H555.598L558.122 107.834C557.478 107.599 556.984 107.238 556.637 106.749C556.297 106.254 556.127 105.679 556.127 105.023C556.127 104.108 556.47 103.372 557.157 102.815C557.843 102.253 558.762 101.968 559.912 101.962H564.133ZM557.853 105.042C557.853 105.531 558.02 105.926 558.354 106.229C558.688 106.526 559.13 106.678 559.68 106.684H562.408V103.354H559.94C559.303 103.354 558.796 103.511 558.418 103.827C558.041 104.136 557.853 104.541 557.853 105.042ZM571.054 112.186C569.694 112.186 568.586 111.74 567.733 110.85C566.879 109.953 566.453 108.756 566.453 107.259V106.944C566.453 105.948 566.641 105.061 567.019 104.281C567.402 103.496 567.934 102.883 568.614 102.444C569.301 101.999 570.043 101.776 570.841 101.776C572.146 101.776 573.16 102.206 573.884 103.066C574.607 103.926 574.969 105.156 574.969 106.758V107.473H568.169C568.194 108.462 568.481 109.263 569.032 109.875C569.588 110.482 570.293 110.785 571.147 110.785C571.753 110.785 572.266 110.661 572.687 110.414C573.108 110.166 573.476 109.838 573.791 109.43L574.839 110.247C573.998 111.539 572.736 112.186 571.054 112.186ZM570.841 103.187C570.148 103.187 569.567 103.44 569.097 103.947C568.627 104.448 568.336 105.153 568.225 106.062H573.253V105.933C573.203 105.061 572.968 104.386 572.548 103.91C572.127 103.428 571.558 103.187 570.841 103.187ZM584.312 103.354H580.944V112H579.228V103.354H575.925V101.962H584.312V103.354ZM589.405 112.186C588.044 112.186 586.937 111.74 586.083 110.85C585.23 109.953 584.803 108.756 584.803 107.259V106.944C584.803 105.948 584.992 105.061 585.369 104.281C585.753 103.496 586.285 102.883 586.965 102.444C587.651 101.999 588.394 101.776 589.191 101.776C590.496 101.776 591.511 102.206 592.234 103.066C592.958 103.926 593.32 105.156 593.32 106.758V107.473H586.52C586.544 108.462 586.832 109.263 587.382 109.875C587.939 110.482 588.644 110.785 589.498 110.785C590.104 110.785 590.617 110.661 591.038 110.414C591.458 110.166 591.826 109.838 592.142 109.43L593.19 110.247C592.349 111.539 591.087 112.186 589.405 112.186ZM589.191 103.187C588.499 103.187 587.917 103.44 587.447 103.947C586.977 104.448 586.687 105.153 586.575 106.062H591.604V105.933C591.554 105.061 591.319 104.386 590.898 103.91C590.478 103.428 589.909 103.187 589.191 103.187ZM605.547 104.708C605.547 104.238 605.368 103.867 605.009 103.595C604.651 103.316 604.159 103.177 603.534 103.177C602.928 103.177 602.421 103.335 602.013 103.65C601.611 103.966 601.41 104.337 601.41 104.764H599.703C599.703 103.892 600.068 103.177 600.797 102.621C601.527 102.064 602.439 101.786 603.534 101.786C604.709 101.786 605.625 102.039 606.28 102.546C606.936 103.047 607.264 103.765 607.264 104.699C607.264 105.15 607.128 105.565 606.855 105.942C606.583 106.319 606.197 106.619 605.696 106.842C606.865 107.238 607.449 108.017 607.449 109.18C607.449 110.101 607.094 110.831 606.382 111.369C605.671 111.907 604.722 112.176 603.534 112.176C602.378 112.176 601.422 111.895 600.667 111.332C599.919 110.763 599.545 109.996 599.545 109.031H601.252C601.252 109.52 601.468 109.94 601.901 110.293C602.34 110.639 602.885 110.812 603.534 110.812C604.19 110.812 604.719 110.661 605.121 110.358C605.523 110.055 605.724 109.662 605.724 109.18C605.724 108.617 605.554 108.215 605.213 107.974C604.879 107.726 604.357 107.603 603.646 107.603H601.929V106.155H603.794C604.963 106.124 605.547 105.642 605.547 104.708ZM615.873 112C615.774 111.802 615.694 111.45 615.632 110.942C614.834 111.771 613.882 112.186 612.774 112.186C611.785 112.186 610.972 111.907 610.334 111.351C609.704 110.788 609.388 110.076 609.388 109.217C609.388 108.172 609.784 107.361 610.576 106.786C611.374 106.205 612.493 105.914 613.934 105.914H615.604V105.125C615.604 104.526 615.425 104.049 615.066 103.697C614.707 103.338 614.178 103.159 613.479 103.159C612.867 103.159 612.354 103.313 611.939 103.623C611.525 103.932 611.318 104.306 611.318 104.745H609.592C609.592 104.244 609.769 103.762 610.121 103.298C610.48 102.828 610.962 102.457 611.568 102.185C612.181 101.912 612.852 101.776 613.582 101.776C614.738 101.776 615.644 102.067 616.3 102.648C616.955 103.224 617.296 104.018 617.32 105.033V109.653C617.32 110.574 617.438 111.307 617.673 111.852V112H615.873ZM613.025 110.692C613.563 110.692 614.073 110.553 614.556 110.274C615.038 109.996 615.388 109.634 615.604 109.189V107.129H614.259C612.156 107.129 611.104 107.745 611.104 108.976C611.104 109.514 611.284 109.934 611.643 110.237C612.001 110.54 612.462 110.692 613.025 110.692ZM627.683 101.962V112H625.958V108.094H623.369L621.003 112H619.148L621.671 107.834C621.028 107.599 620.533 107.238 620.187 106.749C619.847 106.254 619.677 105.679 619.677 105.023C619.677 104.108 620.02 103.372 620.707 102.815C621.393 102.253 622.312 101.968 623.462 101.962H627.683ZM621.402 105.042C621.402 105.531 621.569 105.926 621.903 106.229C622.237 106.526 622.68 106.678 623.23 106.684H625.958V103.354H623.49C622.853 103.354 622.346 103.511 621.968 103.827C621.591 104.136 621.402 104.541 621.402 105.042ZM630.596 112V101.962H634.511C635.847 101.962 636.871 102.197 637.582 102.667C638.299 103.131 638.658 103.814 638.658 104.717C638.658 105.181 638.519 105.602 638.241 105.979C637.962 106.35 637.551 106.635 637.007 106.833C637.613 106.975 638.098 107.253 638.463 107.667C638.834 108.082 639.02 108.577 639.02 109.152C639.02 110.073 638.68 110.778 638 111.267C637.325 111.756 636.37 112 635.133 112H630.596ZM632.312 107.593V110.618H635.151C635.869 110.618 636.404 110.485 636.756 110.219C637.115 109.953 637.294 109.579 637.294 109.096C637.294 108.094 636.558 107.593 635.086 107.593H632.312ZM632.312 106.22H634.53C636.138 106.22 636.942 105.75 636.942 104.81C636.942 103.87 636.181 103.384 634.66 103.354H632.312V106.22ZM644.419 107.723H643.167V112H641.441V101.962H643.167V106.211H644.29L647.667 101.962H649.745L645.774 106.786L650.079 112H647.898L644.419 107.723ZM654.838 109.486L657.176 101.962H659.013L654.977 113.549C654.352 115.219 653.36 116.054 651.999 116.054L651.674 116.026L651.034 115.906V114.514L651.498 114.551C652.079 114.551 652.531 114.434 652.853 114.199C653.18 113.964 653.449 113.534 653.66 112.909L654.04 111.889L650.459 101.962H652.333L654.838 109.486Z" fill="white"/>
<rect width="15" height="15" transform="matrix(-0.707107 -0.707107 -0.707107 0.707107 434.213 92.6064)" fill="#1D4396"/>
<g filter="url(#filter3_d_66_473)">
<rect width="295" height="92" rx="15" transform="matrix(-1 0 0 1 718.213 235)" fill="#1D4396"/>
<rect width="295" height="92" rx="15" transform="matrix(-1 0 0 1 718.213 235)" fill="url(#paint4_linear_66_473)"/>
</g>
<path d="M491.8 260H493.36V272.58H496.04V260H497.6V272.58H500.28V260H501.82V274H491.8V260ZM508.541 271.18H505.001L504.461 274H503.021L505.701 260H507.961L510.641 274H509.081L508.541 271.18ZM506.741 261.76L505.201 269.84H508.321L506.741 261.76ZM517.459 261.42H513.419V274H511.879V260H517.459V261.42ZM525.153 259.86C526.206 259.86 526.993 260.173 527.513 260.8C528.046 261.413 528.313 262.273 528.313 263.38V263.74C528.313 265.233 527.746 266.193 526.613 266.62C527.746 267.047 528.313 268.013 528.313 269.52V270.6C528.313 271.707 528.046 272.573 527.513 273.2C526.993 273.827 526.206 274.14 525.153 274.14C524.113 274.14 523.326 273.827 522.793 273.2C522.273 272.573 522.013 271.707 522.013 270.6V269.64H523.473V270.7C523.473 272.047 524.02 272.72 525.113 272.72C526.206 272.72 526.753 272 526.753 270.56V269.48C526.753 268.133 526.166 267.44 524.993 267.4H524.153V266H525.073C525.606 265.973 526.02 265.8 526.313 265.48C526.606 265.147 526.753 264.68 526.753 264.08V263.44C526.753 261.987 526.206 261.26 525.113 261.26C524.02 261.26 523.473 261.94 523.473 263.3V264.02H522.013V263.38C522.013 262.273 522.273 261.413 522.793 260.8C523.326 260.173 524.113 259.86 525.153 259.86Z" fill="#00BF96"/>
<path d="M499.498 292.12C499.498 291.402 499.235 290.833 498.709 290.413C498.19 289.986 497.457 289.772 496.511 289.772C495.719 289.772 495.054 289.992 494.516 290.431C493.984 290.864 493.718 291.402 493.718 292.045H491.937C491.937 291.328 492.132 290.685 492.521 290.116C492.917 289.547 493.468 289.104 494.173 288.789C494.878 288.467 495.657 288.307 496.511 288.307C498.02 288.307 499.192 288.647 500.027 289.327C500.862 290.001 501.279 290.941 501.279 292.147C501.279 292.772 501.088 293.341 500.704 293.854C500.321 294.368 499.786 294.773 499.099 295.07C500.689 295.602 501.483 296.656 501.483 298.233C501.483 299.446 501.032 300.407 500.129 301.119C499.226 301.83 498.02 302.186 496.511 302.186C495.614 302.186 494.798 302.028 494.062 301.712C493.332 301.391 492.763 300.936 492.354 300.349C491.946 299.761 491.742 299.062 491.742 298.252H493.523C493.523 298.963 493.805 299.557 494.368 300.033C494.931 300.503 495.645 300.738 496.511 300.738C497.482 300.738 498.255 300.513 498.83 300.061C499.411 299.61 499.702 299.013 499.702 298.271C499.702 296.687 498.722 295.88 496.761 295.849H495.091V294.383H496.752C497.655 294.365 498.338 294.161 498.802 293.771C499.266 293.381 499.498 292.831 499.498 292.12ZM509.777 302C509.678 301.802 509.598 301.45 509.536 300.942C508.738 301.771 507.786 302.186 506.679 302.186C505.689 302.186 504.876 301.907 504.239 301.351C503.608 300.788 503.292 300.076 503.292 299.217C503.292 298.172 503.688 297.361 504.48 296.786C505.278 296.205 506.397 295.914 507.838 295.914H509.508V295.125C509.508 294.526 509.329 294.049 508.97 293.697C508.611 293.338 508.083 293.159 507.384 293.159C506.771 293.159 506.258 293.313 505.844 293.623C505.429 293.932 505.222 294.306 505.222 294.745H503.497C503.497 294.244 503.673 293.762 504.025 293.298C504.384 292.828 504.867 292.457 505.473 292.185C506.085 291.912 506.756 291.776 507.486 291.776C508.642 291.776 509.549 292.067 510.204 292.648C510.86 293.224 511.2 294.018 511.225 295.033V299.653C511.225 300.574 511.342 301.307 511.577 301.852V302H509.777ZM506.929 300.692C507.467 300.692 507.978 300.553 508.46 300.274C508.942 299.996 509.292 299.634 509.508 299.189V297.129H508.163C506.06 297.129 505.009 297.745 505.009 298.976C505.009 299.514 505.188 299.934 505.547 300.237C505.906 300.54 506.366 300.692 506.929 300.692ZM517.042 297.723H515.789V302H514.063V291.962H515.789V296.211H516.912L520.289 291.962H522.367L518.396 296.786L522.701 302H520.521L517.042 297.723ZM532.405 291.962V302H530.679V293.381H527.265L527.061 297.139C526.95 298.864 526.659 300.098 526.189 300.84C525.725 301.583 524.986 301.969 523.972 302H523.285V300.488L523.777 300.451C524.333 300.389 524.732 300.067 524.974 299.486C525.215 298.904 525.369 297.828 525.438 296.257L525.623 291.962H532.405ZM537.034 296.22H539.446C539.576 294.884 540.049 293.811 540.866 293.001C541.688 292.185 542.724 291.776 543.974 291.776C545.285 291.776 546.358 292.219 547.193 293.103C548.028 293.987 548.479 295.138 548.547 296.554L548.557 297.092C548.557 298.069 548.365 298.951 547.981 299.736C547.598 300.522 547.06 301.128 546.367 301.555C545.674 301.975 544.883 302.186 543.992 302.186C542.7 302.186 541.642 301.765 540.819 300.924C539.997 300.076 539.536 298.979 539.437 297.63H537.034V302H535.318V291.962H537.034V296.22ZM541.135 297.092C541.135 298.206 541.391 299.099 541.905 299.773C542.424 300.448 543.12 300.785 543.992 300.785C544.864 300.785 545.554 300.441 546.061 299.755C546.574 299.068 546.831 298.113 546.831 296.888C546.831 295.793 546.571 294.903 546.052 294.216C545.532 293.53 544.84 293.187 543.974 293.187C543.12 293.187 542.434 293.524 541.914 294.198C541.395 294.872 541.135 295.837 541.135 297.092ZM558.251 302H556.526V298.363C555.771 298.561 554.998 298.66 554.207 298.66C552.951 298.66 551.992 298.339 551.331 297.695C550.675 297.052 550.341 296.137 550.329 294.949V291.953H552.045V295.005C552.076 296.502 552.796 297.25 554.207 297.25C554.998 297.25 555.771 297.151 556.526 296.953V291.962H558.251V302ZM567.204 302C567.105 301.802 567.025 301.45 566.963 300.942C566.165 301.771 565.213 302.186 564.105 302.186C563.116 302.186 562.303 301.907 561.666 301.351C561.035 300.788 560.719 300.076 560.719 299.217C560.719 298.172 561.115 297.361 561.907 296.786C562.705 296.205 563.824 295.914 565.265 295.914H566.935V295.125C566.935 294.526 566.756 294.049 566.397 293.697C566.038 293.338 565.509 293.159 564.811 293.159C564.198 293.159 563.685 293.313 563.271 293.623C562.856 293.932 562.649 294.306 562.649 294.745H560.923C560.923 294.244 561.1 293.762 561.452 293.298C561.811 292.828 562.293 292.457 562.899 292.185C563.512 291.912 564.183 291.776 564.913 291.776C566.069 291.776 566.975 292.067 567.631 292.648C568.286 293.224 568.627 294.018 568.651 295.033V299.653C568.651 300.574 568.769 301.307 569.004 301.852V302H567.204ZM564.356 300.692C564.894 300.692 565.404 300.553 565.887 300.274C566.369 299.996 566.719 299.634 566.935 299.189V297.129H565.59C563.487 297.129 562.436 297.745 562.436 298.976C562.436 299.514 562.615 299.934 562.974 300.237C563.332 300.54 563.793 300.692 564.356 300.692ZM575.507 302.186C574.147 302.186 573.04 301.74 572.186 300.85C571.333 299.953 570.906 298.756 570.906 297.259V296.944C570.906 295.948 571.094 295.061 571.472 294.281C571.855 293.496 572.387 292.883 573.067 292.444C573.754 291.999 574.496 291.776 575.294 291.776C576.599 291.776 577.613 292.206 578.337 293.066C579.061 293.926 579.422 295.156 579.422 296.758V297.473H572.622C572.647 298.462 572.934 299.263 573.485 299.875C574.042 300.482 574.747 300.785 575.6 300.785C576.206 300.785 576.72 300.661 577.14 300.414C577.561 300.166 577.929 299.838 578.244 299.43L579.292 300.247C578.451 301.539 577.19 302.186 575.507 302.186ZM575.294 293.187C574.601 293.187 574.02 293.44 573.55 293.947C573.08 294.448 572.789 295.153 572.678 296.062H577.706V295.933C577.657 295.061 577.422 294.386 577.001 293.91C576.58 293.428 576.011 293.187 575.294 293.187ZM588.765 293.354H585.397V302H583.681V293.354H580.378V291.962H588.765V293.354ZM593.858 302.186C592.497 302.186 591.39 301.74 590.537 300.85C589.683 299.953 589.256 298.756 589.256 297.259V296.944C589.256 295.948 589.445 295.061 589.822 294.281C590.206 293.496 590.738 292.883 591.418 292.444C592.104 291.999 592.847 291.776 593.645 291.776C594.95 291.776 595.964 292.206 596.688 293.066C597.411 293.926 597.773 295.156 597.773 296.758V297.473H590.973C590.997 298.462 591.285 299.263 591.835 299.875C592.392 300.482 593.097 300.785 593.951 300.785C594.557 300.785 595.07 300.661 595.491 300.414C595.911 300.166 596.279 299.838 596.595 299.43L597.643 300.247C596.802 301.539 595.54 302.186 593.858 302.186ZM593.645 293.187C592.952 293.187 592.37 293.44 591.9 293.947C591.43 294.448 591.14 295.153 591.028 296.062H596.057V295.933C596.007 295.061 595.772 294.386 595.352 293.91C594.931 293.428 594.362 293.187 593.645 293.187ZM604.397 300.599L604.991 299.866C605.659 299 606.039 297.701 606.132 295.97L606.29 291.962H612.756V300.599H614.045V304.95H612.329V302H605.325V304.95H603.608L603.618 300.599H604.397ZM606.429 300.599H611.04V293.548H607.95L607.848 295.942C607.743 297.94 607.27 299.492 606.429 300.599ZM615.493 296.888C615.493 295.905 615.684 295.02 616.068 294.235C616.458 293.449 616.996 292.843 617.682 292.417C618.375 291.99 619.163 291.776 620.048 291.776C621.415 291.776 622.519 292.25 623.36 293.196C624.207 294.142 624.631 295.401 624.631 296.972V297.092C624.631 298.069 624.442 298.948 624.065 299.727C623.694 300.5 623.159 301.103 622.46 301.536C621.767 301.969 620.969 302.186 620.066 302.186C618.706 302.186 617.602 301.712 616.754 300.766C615.913 299.82 615.493 298.567 615.493 297.009V296.888ZM617.218 297.092C617.218 298.206 617.475 299.099 617.988 299.773C618.508 300.448 619.201 300.785 620.066 300.785C620.938 300.785 621.631 300.444 622.145 299.764C622.658 299.078 622.915 298.119 622.915 296.888C622.915 295.787 622.652 294.897 622.126 294.216C621.606 293.53 620.914 293.187 620.048 293.187C619.201 293.187 618.517 293.524 617.998 294.198C617.478 294.872 617.218 295.837 617.218 297.092ZM633.268 293.381H628.639V302H626.913V291.962H633.268V293.381ZM634.122 296.888C634.122 295.905 634.313 295.02 634.697 294.235C635.086 293.449 635.625 292.843 636.311 292.417C637.004 291.99 637.792 291.776 638.677 291.776C640.044 291.776 641.148 292.25 641.989 293.196C642.836 294.142 643.26 295.401 643.26 296.972V297.092C643.26 298.069 643.071 298.948 642.694 299.727C642.323 300.5 641.788 301.103 641.089 301.536C640.396 301.969 639.598 302.186 638.695 302.186C637.335 302.186 636.231 301.712 635.383 300.766C634.542 299.82 634.122 298.567 634.122 297.009V296.888ZM635.847 297.092C635.847 298.206 636.104 299.099 636.617 299.773C637.137 300.448 637.829 300.785 638.695 300.785C639.567 300.785 640.26 300.444 640.773 299.764C641.287 299.078 641.543 298.119 641.543 296.888C641.543 295.787 641.281 294.897 640.755 294.216C640.235 293.53 639.543 293.187 638.677 293.187C637.829 293.187 637.146 293.524 636.626 294.198C636.107 294.872 635.847 295.837 635.847 297.092ZM645.57 302V291.962H649.485C650.821 291.962 651.844 292.197 652.556 292.667C653.273 293.131 653.632 293.814 653.632 294.717C653.632 295.181 653.493 295.602 653.214 295.979C652.936 296.35 652.525 296.635 651.98 296.833C652.587 296.975 653.072 297.253 653.437 297.667C653.808 298.082 653.994 298.577 653.994 299.152C653.994 300.073 653.653 300.778 652.973 301.267C652.299 301.756 651.343 302 650.106 302H645.57ZM647.286 297.593V300.618H650.125C650.842 300.618 651.377 300.485 651.73 300.219C652.089 299.953 652.268 299.579 652.268 299.096C652.268 298.094 651.532 297.593 650.06 297.593H647.286ZM647.286 296.22H649.503C651.111 296.22 651.916 295.75 651.916 294.81C651.916 293.87 651.155 293.384 649.633 293.354H647.286V296.22ZM655.812 296.888C655.812 295.905 656.004 295.02 656.387 294.235C656.777 293.449 657.315 292.843 658.001 292.417C658.694 291.99 659.483 291.776 660.367 291.776C661.734 291.776 662.838 292.25 663.679 293.196C664.527 294.142 664.95 295.401 664.95 296.972V297.092C664.95 298.069 664.762 298.948 664.384 299.727C664.013 300.5 663.478 301.103 662.779 301.536C662.087 301.969 661.289 302.186 660.386 302.186C659.025 302.186 657.921 301.712 657.074 300.766C656.233 299.82 655.812 298.567 655.812 297.009V296.888ZM657.538 297.092C657.538 298.206 657.794 299.099 658.308 299.773C658.827 300.448 659.52 300.785 660.386 300.785C661.258 300.785 661.951 300.444 662.464 299.764C662.977 299.078 663.234 298.119 663.234 296.888C663.234 295.787 662.971 294.897 662.445 294.216C661.926 293.53 661.233 293.187 660.367 293.187C659.52 293.187 658.836 293.524 658.317 294.198C657.797 294.872 657.538 295.837 657.538 297.092ZM675.582 297.092C675.582 298.62 675.233 299.851 674.534 300.785C673.835 301.719 672.889 302.186 671.695 302.186C670.476 302.186 669.518 301.799 668.819 301.026V305.859H667.103V291.962H668.67L668.754 293.075C669.453 292.209 670.424 291.776 671.667 291.776C672.873 291.776 673.826 292.231 674.524 293.14C675.229 294.049 675.582 295.314 675.582 296.935V297.092ZM673.866 296.897C673.866 295.766 673.625 294.872 673.142 294.216C672.66 293.561 671.998 293.233 671.157 293.233C670.118 293.233 669.338 293.694 668.819 294.615V299.412C669.332 300.327 670.118 300.785 671.175 300.785C671.998 300.785 672.65 300.46 673.133 299.811C673.621 299.155 673.866 298.184 673.866 296.897Z" fill="white"/>
<rect width="15" height="15" transform="matrix(-0.707107 -0.707107 -0.707107 0.707107 434.213 282.606)" fill="#1D4396"/>
<g filter="url(#filter4_d_66_473)">
<rect width="295" height="92" rx="15" transform="matrix(-1 0 0 1 718.213 423)" fill="#1D4396"/>
<rect width="295" height="92" rx="15" transform="matrix(-1 0 0 1 718.213 423)" fill="url(#paint5_linear_66_473)"/>
</g>
<path d="M491.8 448H493.36V460.58H496.04V448H497.6V460.58H500.28V448H501.82V462H491.8V448ZM508.541 459.18H505.001L504.461 462H503.021L505.701 448H507.961L510.641 462H509.081L508.541 459.18ZM506.741 449.76L505.201 457.84H508.321L506.741 449.76ZM517.459 449.42H513.419V462H511.879V448H517.459V449.42ZM523.873 449.4L523.653 453.7C524.106 452.927 524.8 452.54 525.733 452.54C526.6 452.54 527.246 452.833 527.673 453.42C528.113 454.007 528.333 454.82 528.333 455.86V458.6C528.333 459.707 528.066 460.573 527.533 461.2C527 461.827 526.213 462.14 525.173 462.14C524.133 462.14 523.346 461.827 522.813 461.2C522.293 460.573 522.033 459.707 522.033 458.6V457.66H523.493V458.7C523.493 460.047 524.04 460.72 525.133 460.72C526.226 460.72 526.773 460.047 526.773 458.7V455.98C526.773 454.633 526.226 453.96 525.133 453.96C524.213 453.96 523.686 454.46 523.553 455.46V455.78H522.093L522.473 448H527.993V449.4H523.873Z" fill="#00BF96"/>
<path d="M502.884 490H501.094V477.958H494.433V490H492.651V476.492H502.884V490ZM505.408 484.888C505.408 483.905 505.599 483.02 505.983 482.235C506.373 481.449 506.911 480.843 507.597 480.417C508.29 479.99 509.078 479.776 509.963 479.776C511.33 479.776 512.434 480.25 513.275 481.196C514.122 482.142 514.546 483.401 514.546 484.972V485.092C514.546 486.069 514.357 486.948 513.98 487.727C513.609 488.5 513.074 489.103 512.375 489.536C511.682 489.969 510.884 490.186 509.981 490.186C508.621 490.186 507.517 489.712 506.669 488.766C505.828 487.82 505.408 486.567 505.408 485.009V484.888ZM507.133 485.092C507.133 486.206 507.39 487.099 507.903 487.773C508.423 488.448 509.116 488.785 509.981 488.785C510.854 488.785 511.546 488.444 512.06 487.764C512.573 487.078 512.83 486.119 512.83 484.888C512.83 483.787 512.567 482.897 512.041 482.216C511.521 481.53 510.829 481.187 509.963 481.187C509.116 481.187 508.432 481.524 507.913 482.198C507.393 482.872 507.133 483.837 507.133 485.092ZM524.779 479.962V490H523.053V481.381H519.639L519.435 485.139C519.324 486.864 519.033 488.098 518.563 488.84C518.099 489.583 517.36 489.969 516.346 490H515.659V488.488L516.151 488.451C516.708 488.389 517.106 488.067 517.348 487.486C517.589 486.904 517.743 485.828 517.812 484.257L517.997 479.962H524.779ZM530.818 487.486L533.156 479.962H534.993L530.958 491.549C530.333 493.219 529.34 494.054 527.979 494.054L527.655 494.026L527.015 493.906V492.514L527.479 492.551C528.06 492.551 528.511 492.434 528.833 492.199C529.161 491.964 529.43 491.534 529.64 490.909L530.021 489.889L526.439 479.962H528.313L530.818 487.486ZM544.113 490H542.387V486.363C541.633 486.561 540.86 486.66 540.068 486.66C538.812 486.66 537.854 486.339 537.192 485.695C536.536 485.052 536.202 484.137 536.19 482.949V479.953H537.906V483.005C537.937 484.502 538.658 485.25 540.068 485.25C540.86 485.25 541.633 485.151 542.387 484.953V479.962H544.113V490ZM553.065 490C552.966 489.802 552.886 489.45 552.824 488.942C552.026 489.771 551.074 490.186 549.967 490.186C548.977 490.186 548.164 489.907 547.527 489.351C546.896 488.788 546.581 488.076 546.581 487.217C546.581 486.172 546.976 485.361 547.768 484.786C548.566 484.205 549.685 483.914 551.126 483.914H552.796V483.125C552.796 482.526 552.617 482.049 552.258 481.697C551.9 481.338 551.371 481.159 550.672 481.159C550.06 481.159 549.546 481.313 549.132 481.623C548.717 481.932 548.51 482.306 548.51 482.745H546.785C546.785 482.244 546.961 481.762 547.313 481.298C547.672 480.828 548.155 480.457 548.761 480.185C549.373 479.912 550.044 479.776 550.774 479.776C551.931 479.776 552.837 480.067 553.492 480.648C554.148 481.224 554.488 482.018 554.513 483.033V487.653C554.513 488.574 554.63 489.307 554.865 489.852V490H553.065ZM550.217 488.692C550.755 488.692 551.266 488.553 551.748 488.274C552.23 487.996 552.58 487.634 552.796 487.189V485.129H551.451C549.348 485.129 548.297 485.745 548.297 486.976C548.297 487.514 548.476 487.934 548.835 488.237C549.194 488.54 549.654 488.692 550.217 488.692ZM561.369 490.186C560.008 490.186 558.901 489.74 558.047 488.85C557.194 487.953 556.767 486.756 556.767 485.259V484.944C556.767 483.948 556.956 483.061 557.333 482.281C557.716 481.496 558.248 480.883 558.929 480.444C559.615 479.999 560.357 479.776 561.155 479.776C562.46 479.776 563.475 480.206 564.198 481.066C564.922 481.926 565.284 483.156 565.284 484.758V485.473H558.483C558.508 486.462 558.796 487.263 559.346 487.875C559.903 488.482 560.608 488.785 561.461 488.785C562.068 488.785 562.581 488.661 563.001 488.414C563.422 488.166 563.79 487.838 564.105 487.43L565.154 488.247C564.313 489.539 563.051 490.186 561.369 490.186ZM561.155 481.187C560.463 481.187 559.881 481.44 559.411 481.947C558.941 482.448 558.65 483.153 558.539 484.062H563.567V483.933C563.518 483.061 563.283 482.386 562.862 481.91C562.442 481.428 561.873 481.187 561.155 481.187ZM574.626 481.354H571.258V490H569.542V481.354H566.239V479.962H574.626V481.354ZM579.719 490.186C578.359 490.186 577.251 489.74 576.398 488.85C575.544 487.953 575.118 486.756 575.118 485.259V484.944C575.118 483.948 575.306 483.061 575.684 482.281C576.067 481.496 576.599 480.883 577.279 480.444C577.966 479.999 578.708 479.776 579.506 479.776C580.811 479.776 581.825 480.206 582.549 481.066C583.272 481.926 583.634 483.156 583.634 484.758V485.473H576.834C576.859 486.462 577.146 487.263 577.697 487.875C578.253 488.482 578.958 488.785 579.812 488.785C580.418 488.785 580.931 488.661 581.352 488.414C581.773 488.166 582.141 487.838 582.456 487.43L583.504 488.247C582.663 489.539 581.402 490.186 579.719 490.186ZM579.506 481.187C578.813 481.187 578.232 481.44 577.762 481.947C577.292 482.448 577.001 483.153 576.89 484.062H581.918V483.933C581.868 483.061 581.633 482.386 581.213 481.91C580.792 481.428 580.223 481.187 579.506 481.187ZM595.862 482.708C595.862 482.238 595.682 481.867 595.324 481.595C594.965 481.316 594.473 481.177 593.849 481.177C593.243 481.177 592.735 481.335 592.327 481.65C591.925 481.966 591.724 482.337 591.724 482.764H590.017C590.017 481.892 590.382 481.177 591.112 480.621C591.842 480.064 592.754 479.786 593.849 479.786C595.024 479.786 595.939 480.039 596.595 480.546C597.25 481.047 597.578 481.765 597.578 482.699C597.578 483.15 597.442 483.565 597.17 483.942C596.898 484.319 596.511 484.619 596.01 484.842C597.179 485.238 597.764 486.017 597.764 487.18C597.764 488.101 597.408 488.831 596.697 489.369C595.986 489.907 595.036 490.176 593.849 490.176C592.692 490.176 591.736 489.895 590.982 489.332C590.234 488.763 589.859 487.996 589.859 487.031H591.566C591.566 487.52 591.783 487.94 592.216 488.293C592.655 488.639 593.199 488.812 593.849 488.812C594.504 488.812 595.033 488.661 595.435 488.358C595.837 488.055 596.038 487.662 596.038 487.18C596.038 486.617 595.868 486.215 595.528 485.974C595.194 485.726 594.671 485.603 593.96 485.603H592.244V484.155H594.108C595.277 484.124 595.862 483.642 595.862 482.708ZM606.188 490C606.089 489.802 606.008 489.45 605.946 488.942C605.148 489.771 604.196 490.186 603.089 490.186C602.099 490.186 601.286 489.907 600.649 489.351C600.018 488.788 599.703 488.076 599.703 487.217C599.703 486.172 600.098 485.361 600.89 484.786C601.688 484.205 602.807 483.914 604.249 483.914H605.918V483.125C605.918 482.526 605.739 482.049 605.38 481.697C605.022 481.338 604.493 481.159 603.794 481.159C603.182 481.159 602.668 481.313 602.254 481.623C601.84 481.932 601.632 482.306 601.632 482.745H599.907C599.907 482.244 600.083 481.762 600.436 481.298C600.794 480.828 601.277 480.457 601.883 480.185C602.495 479.912 603.166 479.776 603.896 479.776C605.053 479.776 605.959 480.067 606.614 480.648C607.27 481.224 607.61 482.018 607.635 483.033V487.653C607.635 488.574 607.752 489.307 607.987 489.852V490H606.188ZM603.339 488.692C603.877 488.692 604.388 488.553 604.87 488.274C605.353 487.996 605.702 487.634 605.918 487.189V485.129H604.573C602.47 485.129 601.419 485.745 601.419 486.976C601.419 487.514 601.598 487.934 601.957 488.237C602.316 488.54 602.777 488.692 603.339 488.692ZM613.452 485.723H612.199V490H610.474V479.962H612.199V484.211H613.322L616.699 479.962H618.777L614.806 484.786L619.111 490H616.931L613.452 485.723ZM626.783 490C626.684 489.802 626.604 489.45 626.542 488.942C625.744 489.771 624.792 490.186 623.685 490.186C622.695 490.186 621.882 489.907 621.245 489.351C620.614 488.788 620.298 488.076 620.298 487.217C620.298 486.172 620.694 485.361 621.486 484.786C622.284 484.205 623.403 483.914 624.844 483.914H626.514V483.125C626.514 482.526 626.335 482.049 625.976 481.697C625.617 481.338 625.089 481.159 624.39 481.159C623.777 481.159 623.264 481.313 622.85 481.623C622.435 481.932 622.228 482.306 622.228 482.745H620.502C620.502 482.244 620.679 481.762 621.031 481.298C621.39 480.828 621.872 480.457 622.479 480.185C623.091 479.912 623.762 479.776 624.492 479.776C625.648 479.776 626.554 480.067 627.21 480.648C627.866 481.224 628.206 482.018 628.23 483.033V487.653C628.23 488.574 628.348 489.307 628.583 489.852V490H626.783ZM623.935 488.692C624.473 488.692 624.983 488.553 625.466 488.274C625.948 487.996 626.298 487.634 626.514 487.189V485.129H625.169C623.066 485.129 622.015 485.745 622.015 486.976C622.015 487.514 622.194 487.934 622.553 488.237C622.911 488.54 623.372 488.692 623.935 488.692ZM636.441 482.708C636.441 482.238 636.262 481.867 635.903 481.595C635.544 481.316 635.052 481.177 634.428 481.177C633.822 481.177 633.314 481.335 632.906 481.65C632.504 481.966 632.303 482.337 632.303 482.764H630.596C630.596 481.892 630.961 481.177 631.691 480.621C632.421 480.064 633.333 479.786 634.428 479.786C635.603 479.786 636.518 480.039 637.174 480.546C637.829 481.047 638.157 481.765 638.157 482.699C638.157 483.15 638.021 483.565 637.749 483.942C637.477 484.319 637.09 484.619 636.589 484.842C637.758 485.238 638.343 486.017 638.343 487.18C638.343 488.101 637.987 488.831 637.276 489.369C636.565 489.907 635.615 490.176 634.428 490.176C633.271 490.176 632.316 489.895 631.561 489.332C630.813 488.763 630.438 487.996 630.438 487.031H632.146C632.146 487.52 632.362 487.94 632.795 488.293C633.234 488.639 633.778 488.812 634.428 488.812C635.083 488.812 635.612 488.661 636.014 488.358C636.416 488.055 636.617 487.662 636.617 487.18C636.617 486.617 636.447 486.215 636.107 485.974C635.773 485.726 635.25 485.603 634.539 485.603H632.823V484.155H634.688C635.856 484.124 636.441 483.642 636.441 482.708Z" fill="white"/>
<rect width="15" height="15" transform="matrix(-0.707107 -0.707107 -0.707107 0.707107 434.213 470.606)" fill="#1D4396"/>
<defs>
<filter id="filter0_d_66_473" x="0" y="100" width="375" height="172" filterUnits="userSpaceOnUse" color-interpolation-filters="sRGB">
<feFlood flood-opacity="0" result="BackgroundImageFix"/>
<feColorMatrix in="SourceAlpha" type="matrix" values="0 0 0 0 0 0 0 0 0 0 0 0 0 0 0 0 0 0 127 0" result="hardAlpha"/>
<feOffset/>
<feGaussianBlur stdDeviation="20"/>
<feColorMatrix type="matrix" values="0 0 0 0 0.101961 0 0 0 0 0.239216 0 0 0 0 0.541176 0 0 0 0.2 0"/>
<feBlend mode="normal" in2="BackgroundImageFix" result="effect1_dropShadow_66_473"/>
<feBlend mode="normal" in="SourceGraphic" in2="effect1_dropShadow_66_473" result="shape"/>
</filter>
<filter id="filter1_d_66_473" x="0" y="289" width="375" height="172" filterUnits="userSpaceOnUse" color-interpolation-filters="sRGB">
<feFlood flood-opacity="0" result="BackgroundImageFix"/>
<feColorMatrix in="SourceAlpha" type="matrix" values="0 0 0 0 0 0 0 0 0 0 0 0 0 0 0 0 0 0 127 0" result="hardAlpha"/>
<feOffset/>
<feGaussianBlur stdDeviation="20"/>
<feColorMatrix type="matrix" values="0 0 0 0 0.101961 0 0 0 0 0.239216 0 0 0 0 0.541176 0 0 0 0.2 0"/>
<feBlend mode="normal" in2="BackgroundImageFix" result="effect1_dropShadow_66_473"/>
<feBlend mode="normal" in="SourceGraphic" in2="effect1_dropShadow_66_473" result="shape"/>
</filter>
<filter id="filter2_d_66_473" x="383.213" y="5" width="375" height="172" filterUnits="userSpaceOnUse" color-interpolation-filters="sRGB">
<feFlood flood-opacity="0" result="BackgroundImageFix"/>
<feColorMatrix in="SourceAlpha" type="matrix" values="0 0 0 0 0 0 0 0 0 0 0 0 0 0 0 0 0 0 127 0" result="hardAlpha"/>
<feOffset/>
<feGaussianBlur stdDeviation="20"/>
<feColorMatrix type="matrix" values="0 0 0 0 0.101961 0 0 0 0 0.239216 0 0 0 0 0.541176 0 0 0 0.2 0"/>
<feBlend mode="normal" in2="BackgroundImageFix" result="effect1_dropShadow_66_473"/>
<feBlend mode="normal" in="SourceGraphic" in2="effect1_dropShadow_66_473" result="shape"/>
</filter>
<filter id="filter3_d_66_473" x="383.213" y="195" width="375" height="172" filterUnits="userSpaceOnUse" color-interpolation-filters="sRGB">
<feFlood flood-opacity="0" result="BackgroundImageFix"/>
<feColorMatrix in="SourceAlpha" type="matrix" values="0 0 0 0 0 0 0 0 0 0 0 0 0 0 0 0 0 0 127 0" result="hardAlpha"/>
<feOffset/>
<feGaussianBlur stdDeviation="20"/>
<feColorMatrix type="matrix" values="0 0 0 0 0.101961 0 0 0 0 0.239216 0 0 0 0 0.541176 0 0 0 0.2 0"/>
<feBlend mode="normal" in2="BackgroundImageFix" result="effect1_dropShadow_66_473"/>
<feBlend mode="normal" in="SourceGraphic" in2="effect1_dropShadow_66_473" result="shape"/>
</filter>
<filter id="filter4_d_66_473" x="383.213" y="383" width="375" height="172" filterUnits="userSpaceOnUse" color-interpolation-filters="sRGB">
<feFlood flood-opacity="0" result="BackgroundImageFix"/>
<feColorMatrix in="SourceAlpha" type="matrix" values="0 0 0 0 0 0 0 0 0 0 0 0 0 0 0 0 0 0 127 0" result="hardAlpha"/>
<feOffset/>
<feGaussianBlur stdDeviation="20"/>
<feColorMatrix type="matrix" values="0 0 0 0 0.101961 0 0 0 0 0.239216 0 0 0 0 0.541176 0 0 0 0.2 0"/>
<feBlend mode="normal" in2="BackgroundImageFix" result="effect1_dropShadow_66_473"/>
<feBlend mode="normal" in="SourceGraphic" in2="effect1_dropShadow_66_473" result="shape"/>
</filter>
<linearGradient id="paint0_linear_66_473" x1="613" y1="235" x2="380.365" y2="237.455" gradientUnits="userSpaceOnUse">
<stop stop-color="white" stop-opacity="0"/>
<stop offset="0.510417" stop-color="white"/>
<stop offset="1" stop-color="white" stop-opacity="0"/>
</linearGradient>
<linearGradient id="paint1_linear_66_473" x1="335" y1="186" x2="40" y2="186" gradientUnits="userSpaceOnUse">
<stop stop-color="#1D4396"/>
<stop offset="1" stop-color="#1A3D8A"/>
</linearGradient>
<linearGradient id="paint2_linear_66_473" x1="335" y1="375" x2="40" y2="375" gradientUnits="userSpaceOnUse">
<stop stop-color="#1D4396"/>
<stop offset="1" stop-color="#1A3D8A"/>
</linearGradient>
<linearGradient id="paint3_linear_66_473" x1="295" y1="46" x2="-2.23287e-06" y2="46" gradientUnits="userSpaceOnUse">
<stop stop-color="#1D4396"/>
<stop offset="1" stop-color="#1A3D8A"/>
</linearGradient>
<linearGradient id="paint4_linear_66_473" x1="295" y1="46" x2="-2.23287e-06" y2="46" gradientUnits="userSpaceOnUse">
<stop stop-color="#1D4396"/>
<stop offset="1" stop-color="#1A3D8A"/>
</linearGradient>
<linearGradient id="paint5_linear_66_473" x1="295" y1="46" x2="-2.23287e-06" y2="46" gradientUnits="userSpaceOnUse">
<stop stop-color="#1D4396"/>
<stop offset="1" stop-color="#1A3D8A"/>
</linearGradient>
</defs>
</svg>
