<svg width="300" height="300" viewBox="0 0 300 300" fill="none" xmlns="http://www.w3.org/2000/svg">
<rect width="300" height="300" fill="white"/>
<rect width="300" height="300" fill="white"/>
<path d="M42.9535 13C41.6268 13.0011 40.3031 13.1297 39 13.3843C43.8086 14.3234 48.1463 16.9459 51.2662 20.8001C54.3861 24.6544 56.0929 29.4993 56.0929 34.5007C56.0929 39.5021 54.3861 44.347 51.2662 48.2012C48.1463 52.0555 43.8086 54.6779 39 55.6171C41.8791 56.1797 44.8414 56.1217 47.6972 55.4469C50.5531 54.772 53.2394 53.4951 55.5842 51.6981C57.9289 49.901 59.8803 47.6234 61.3134 45.0112C62.7465 42.3989 63.6296 39.5096 63.9061 36.5285C64.1827 33.5473 63.8466 30.54 62.9194 27.6993C61.9922 24.8585 60.4944 22.2469 58.5218 20.0319C56.5493 17.8168 54.1455 16.0472 51.4646 14.8363C48.7837 13.6253 45.8848 12.9999 42.9535 13Z" fill="#F2F2F2"/>
<path d="M95.6969 161.723C95.6969 161.723 95.839 158.746 98.7507 159.092L95.6969 161.723Z" fill="#3F3D56"/>
<path d="M94.8733 158.891C95.6782 158.891 96.3306 158.238 96.3306 157.433C96.3306 156.629 95.6782 155.976 94.8733 155.976C94.0685 155.976 93.416 156.629 93.416 157.433C93.416 158.238 94.0685 158.891 94.8733 158.891Z" fill="#00BF96"/>
<path d="M95.0486 159.887H94.6372V162.767H95.0486V159.887Z" fill="#3F3D56"/>
<path d="M79.4415 255.171C75.1461 260.924 66.2297 261.529 66.2297 261.529C66.2297 261.529 64.2775 252.808 68.5729 247.056C72.8683 241.303 81.7847 240.698 81.7847 240.698C81.7847 240.698 83.7369 249.419 79.4415 255.171Z" fill="#E6E6E6"/>
<path d="M57.559 257.334C60.3934 261.129 66.277 261.529 66.277 261.529C66.277 261.529 67.5652 255.774 64.7308 251.978C61.8964 248.182 56.0128 247.783 56.0128 247.783C56.0128 247.783 54.7246 253.538 57.559 257.334Z" fill="#E6E6E6"/>
<path d="M200 22H101V169H200V22Z" fill="#E6E6E6"/>
<path d="M194 30H108V162H194V30Z" fill="white"/>
<path d="M249.995 88.1785L252 86.0301C250.443 85.7999 249.803 86.9379 249.541 87.8387C248.705 87.4672 247.795 87.5425 247 88.0489L251.011 90C250.808 89.2758 250.456 88.6439 249.995 88.1785Z" fill="#3F3D56"/>
<path d="M159.194 74.1785L162 72.0301C159.82 71.7999 158.924 72.9379 158.557 73.8387C157.388 73.4672 156.113 73.5425 155 74.0489L160.615 76C160.332 75.2758 159.839 74.6439 159.194 74.1785Z" fill="#3F3D56"/>
<path d="M260.396 65.6338L262 64.0226C260.754 63.8499 260.242 64.7034 260.033 65.379C259.364 65.1004 258.636 65.1569 258 65.5367L261.209 67C261.047 66.4569 260.765 65.9829 260.396 65.6338Z" fill="#3F3D56"/>
<path d="M172 108H168V123H172V108Z" fill="#3F3D56"/>
<path d="M172 106H168V121H172V106Z" fill="#3F3D56"/>
<path d="M180 125.753L165.341 108H136.577L119 125.457L119.355 125.69H119.228V162H179.95V125.69L180 125.753Z" fill="#3F3D56"/>
<path d="M164.472 108L145 129.466V162H180V125.382L164.472 108Z" fill="#4864A1"/>
<path d="M162 142H155V150H162V142Z" fill="#3F3D56"/>
<path d="M162 133H155V139H162V133Z" fill="#3F3D56"/>
<path d="M162 142H155V150H162V142Z" fill="white"/>
<path d="M162 133H155V139H162V133Z" fill="white"/>
<path d="M171 142H164V150H171V142Z" fill="#3F3D56"/>
<path d="M171 133H164V139H171V133Z" fill="#3F3D56"/>
<path d="M171 142H164V150H171V142Z" fill="white"/>
<path d="M171 133H164V139H171V133Z" fill="white"/>
<path d="M246 169H57C57 169 95.3735 158.886 151.893 159.001C152.21 159.001 152.528 159.002 152.845 159.004C153.972 159.008 155.106 159.017 156.247 159.029C157.14 159.04 158.036 159.053 158.936 159.068C159.325 159.074 159.714 159.081 160.105 159.089C160.261 159.092 160.416 159.095 160.57 159.098C160.928 159.105 161.289 159.113 161.652 159.122C162.332 159.137 163.014 159.153 163.698 159.172C164.298 159.189 164.9 159.207 165.506 159.226C165.736 159.232 165.97 159.239 166.203 159.248C167.3 159.283 168.401 159.322 169.507 159.368C169.763 159.378 170.02 159.388 170.278 159.399C170.632 159.412 170.989 159.429 171.343 159.444C171.812 159.464 172.281 159.486 172.751 159.508C173.361 159.536 173.969 159.566 174.58 159.597C175.857 159.661 177.142 159.732 178.434 159.809C179.394 159.864 180.357 159.923 181.323 159.987C181.733 160.014 182.146 160.043 182.559 160.071C183.191 160.113 183.825 160.157 184.46 160.204C184.864 160.233 185.27 160.263 185.674 160.293C186.163 160.329 186.65 160.366 187.138 160.405C187.625 160.443 188.116 160.482 188.605 160.522C189.096 160.563 189.587 160.603 190.078 160.645C190.571 160.686 191.062 160.728 191.555 160.773C192.042 160.814 192.528 160.859 193.017 160.904C195.098 161.093 197.195 161.299 199.306 161.522C199.71 161.564 200.119 161.607 200.525 161.652C200.944 161.697 201.365 161.743 201.787 161.791C202.374 161.855 202.962 161.921 203.553 161.99C204.059 162.048 204.566 162.107 205.074 162.168C205.532 162.221 205.995 162.276 206.456 162.333L206.599 162.351C207.107 162.412 207.618 162.476 208.126 162.54C208.637 162.604 209.149 162.67 209.66 162.735C210.173 162.801 210.685 162.868 211.198 162.937C211.713 163.005 212.225 163.074 212.74 163.144C213.142 163.199 213.542 163.254 213.944 163.309C214.144 163.337 214.344 163.364 214.543 163.392C214.974 163.454 215.405 163.515 215.838 163.577C216.355 163.652 216.873 163.727 217.391 163.802C217.45 163.811 217.507 163.82 217.565 163.828C218.369 163.947 219.174 164.068 219.979 164.191C220.087 164.208 220.198 164.225 220.309 164.242C220.73 164.306 221.152 164.372 221.573 164.439C221.995 164.506 222.416 164.571 222.84 164.64C222.857 164.641 222.875 164.644 222.892 164.647C223.489 164.743 224.085 164.839 224.684 164.939C224.982 164.987 225.279 165.036 225.577 165.087C225.986 165.154 226.392 165.222 226.8 165.292C227.067 165.339 227.335 165.385 227.604 165.431C227.802 165.462 227.999 165.497 228.197 165.532C228.614 165.602 229.032 165.675 229.451 165.75C229.839 165.818 230.228 165.888 230.617 165.957C230.628 165.958 230.639 165.96 230.65 165.963C230.743 165.979 230.834 165.996 230.928 166.012C231.212 166.063 231.497 166.115 231.784 166.167C232.077 166.221 232.372 166.274 232.668 166.33C232.926 166.377 233.187 166.425 233.446 166.474C233.453 166.474 233.46 166.475 233.467 166.477C233.504 166.483 233.541 166.491 233.578 166.498C233.878 166.553 234.178 166.608 234.478 166.666C234.777 166.723 235.077 166.78 235.379 166.838C235.409 166.842 235.44 166.848 235.47 166.854C235.703 166.897 235.935 166.942 236.168 166.988C236.168 166.988 236.168 166.987 236.17 166.988C236.302 167.012 236.435 167.039 236.567 167.064C236.921 167.133 237.276 167.202 237.63 167.271C237.858 167.316 238.088 167.361 238.316 167.407C238.953 167.534 239.591 167.661 240.23 167.79C240.869 167.92 241.51 168.051 242.148 168.183C242.533 168.262 242.915 168.343 243.3 168.425C243.66 168.499 244.021 168.575 244.382 168.653C244.92 168.768 245.461 168.882 246 169Z" fill="#E6E6E6"/>
<path d="M245.885 169C245.406 168.902 244.925 168.805 244.446 168.709L244.269 168.674C243.909 168.601 243.549 168.53 243.189 168.46C242.804 168.383 242.422 168.307 242.039 168.233C241.4 168.109 240.762 167.985 240.123 167.864C239.564 167.757 239.006 167.652 238.448 167.548L238.211 167.504C238.016 167.467 237.82 167.431 237.626 167.395L237.526 167.377C237.204 167.317 236.882 167.258 236.561 167.2L236.412 167.172V167.175L236.064 167.11L236.045 167.107L236.011 167.101C235.798 167.061 235.584 167.022 235.37 166.985C235.34 166.979 235.315 166.975 235.29 166.971L234.378 166.808C234.092 166.756 233.807 166.707 233.523 166.658L233.48 166.65C233.442 166.643 233.408 166.637 233.375 166.632C233.118 166.587 232.889 166.547 232.66 166.508L230.522 166.142C230.134 166.076 229.745 166.011 229.357 165.948C228.939 165.877 228.522 165.809 228.107 165.743C227.908 165.71 227.712 165.678 227.517 165.649L226.709 165.518C226.302 165.452 225.897 165.388 225.489 165.325C225.192 165.277 224.895 165.231 224.598 165.186C223.998 165.092 223.404 165.001 222.807 164.912L222.755 164.905C222.483 164.863 222.213 164.823 221.943 164.783L221.49 164.716C221.069 164.653 220.649 164.591 220.228 164.531L219.898 164.484C219.093 164.367 218.289 164.253 217.487 164.142C217.442 164.137 217.392 164.129 217.342 164.122L212.669 163.499C212.154 163.434 211.642 163.369 211.128 163.305C210.616 163.241 210.104 163.178 209.592 163.116C209.082 163.054 208.57 162.993 208.06 162.933C207.553 162.872 207.043 162.812 206.536 162.755L206.391 162.738C205.932 162.685 205.47 162.633 205.012 162.583C204.537 162.529 204.063 162.477 203.591 162.427L203.493 162.416C202.903 162.352 202.315 162.289 201.73 162.229C201.308 162.184 200.888 162.14 200.469 162.098C200.063 162.056 199.655 162.016 199.252 161.977C197.187 161.771 195.074 161.576 192.97 161.396C192.473 161.353 191.992 161.312 191.511 161.273C191.017 161.231 190.527 161.192 190.035 161.152C189.545 161.113 189.054 161.075 188.564 161.037C188.126 161.004 187.687 160.971 187.251 160.938L187.099 160.927C186.611 160.89 186.125 160.855 185.638 160.822L184.424 160.738C183.791 160.695 183.158 160.653 182.526 160.613L182.416 160.606C182.04 160.582 181.665 160.558 181.291 160.535C180.326 160.476 179.364 160.42 178.406 160.367C177.116 160.294 175.833 160.228 174.556 160.168C173.947 160.139 173.339 160.111 172.73 160.084C172.304 160.065 171.879 160.047 171.453 160.029L170.964 160.01C170.73 160 170.495 159.99 170.261 159.982L169.49 159.953C168.386 159.911 167.286 159.873 166.191 159.841C165.957 159.832 165.724 159.825 165.495 159.82C164.888 159.802 164.287 159.785 163.688 159.769C163.005 159.753 162.324 159.737 161.645 159.722L160.1 159.691C159.709 159.684 159.32 159.677 158.933 159.671C158.032 159.656 157.138 159.645 156.246 159.635C155.107 159.622 153.974 159.614 152.848 159.611L152.762 159.611C152.474 159.61 152.186 159.609 151.899 159.608C151.586 159.608 151.269 159.607 150.957 159.607C95.662 159.607 57.5191 168.903 57.1382 168.997L57 168.407C57.3816 168.312 95.5986 159 150.957 159C151.273 159 151.582 159 151.899 159.001C152.187 159.001 152.475 159.002 152.764 159.003L152.851 159.004C153.978 159.008 155.112 159.016 156.252 159.028C157.145 159.037 158.04 159.049 158.942 159.064C159.33 159.07 159.719 159.076 160.11 159.084L161.657 159.114C162.336 159.128 163.018 159.144 163.703 159.162C164.303 159.178 164.905 159.194 165.511 159.213C165.74 159.218 165.976 159.225 166.209 159.234C167.304 159.266 168.405 159.303 169.512 159.346L170.282 159.375C170.516 159.383 170.752 159.393 170.988 159.403L171.478 159.423C171.904 159.44 172.329 159.459 172.755 159.477C173.365 159.504 173.973 159.532 174.584 159.561C175.861 159.622 177.146 159.688 178.438 159.76C179.397 159.812 180.36 159.868 181.326 159.929C181.7 159.952 182.076 159.975 182.453 160L182.562 160.007C183.194 160.046 183.828 160.088 184.463 160.132L185.677 160.216C186.166 160.25 186.653 160.285 187.142 160.321L187.293 160.332C187.73 160.365 188.17 160.398 188.608 160.432C189.099 160.47 189.589 160.508 190.08 160.547C190.574 160.586 191.065 160.625 191.558 160.667C192.039 160.706 192.522 160.747 193.006 160.789C195.126 160.971 197.241 161.166 199.309 161.372C199.712 161.411 200.121 161.452 200.527 161.494C200.946 161.536 201.368 161.579 201.789 161.624C202.375 161.685 202.964 161.747 203.555 161.812L203.653 161.823C204.126 161.874 204.601 161.926 205.076 161.979C205.534 162.029 205.996 162.081 206.458 162.134L206.601 162.151C207.108 162.209 207.619 162.269 208.128 162.329C208.638 162.389 209.15 162.451 209.661 162.513C210.174 162.574 210.687 162.637 211.199 162.702C211.714 162.766 212.227 162.831 212.742 162.897L217.424 163.521C217.47 163.527 217.514 163.534 217.561 163.539C218.37 163.652 219.174 163.766 219.98 163.882L220.308 163.929C220.731 163.99 221.153 164.052 221.575 164.115L222.027 164.182C222.298 164.222 222.569 164.263 222.841 164.304C222.848 164.306 222.871 164.307 222.896 164.311C223.49 164.4 224.087 164.492 224.685 164.585C224.982 164.63 225.28 164.676 225.579 164.724C225.986 164.787 226.392 164.852 226.801 164.918L227.604 165.048C227.8 165.077 228 165.11 228.2 165.144C228.614 165.209 229.031 165.277 229.451 165.348C229.84 165.412 230.229 165.477 230.618 165.543C230.637 165.545 230.655 165.549 230.674 165.553L232.758 165.908C232.979 165.947 233.201 165.985 233.422 166.025L233.477 166.033C233.502 166.037 233.542 166.044 233.582 166.052L233.62 166.058C233.907 166.108 234.193 166.158 234.479 166.21L235.38 166.371C235.401 166.374 235.435 166.38 235.469 166.386C235.668 166.421 235.867 166.457 236.065 166.493L236.126 166.459L236.225 166.522C236.293 166.534 236.361 166.546 236.43 166.559L236.664 166.601C236.986 166.66 237.308 166.719 237.63 166.779L237.73 166.797C237.926 166.833 238.122 166.869 238.317 166.906L238.553 166.95C239.111 167.055 239.67 167.16 240.23 167.266C240.869 167.388 241.51 167.511 242.148 167.636C242.533 167.71 242.916 167.786 243.3 167.864C243.66 167.933 244.021 168.005 244.382 168.078L244.558 168.113C245.039 168.209 245.521 168.306 246 168.404L245.885 169Z" fill="#3F3D56"/>
<path d="M116.995 10.7231L119 8.03761C117.443 7.74984 116.803 9.1724 116.541 10.2984C115.705 9.83401 114.795 9.92814 114 10.5611L118.011 13C117.808 12.0948 117.456 11.3049 116.995 10.7231Z" fill="#3F3D56"/>
<path d="M157.396 16.6338L159 15.0226C157.754 14.8499 157.242 15.7034 157.033 16.379C156.364 16.1004 155.636 16.1569 155 16.5367L158.209 18C158.047 17.4569 157.765 16.983 157.396 16.6338Z" fill="#3F3D56"/>
<path d="M118.793 35.0892L122 34.015C119.508 33.8999 118.485 34.469 118.066 34.9193C116.729 34.7336 115.272 34.7713 114 35.0245L120.417 36C120.094 35.6379 119.53 35.322 118.793 35.0892Z" fill="#3F3D56"/>
<path d="M37.8959 181.845C38.9937 181.503 39.4687 179.892 38.9569 178.245C38.445 176.598 37.1401 175.54 36.0423 175.881C34.9444 176.223 34.4694 177.834 34.9813 179.481C35.4932 181.128 36.7981 182.186 37.8959 181.845Z" fill="#2F2E41"/>
<path d="M13.5513 165.437C13.5513 165.437 12.9268 177.926 14.1758 186.253C15.4247 194.579 16.8818 202.489 16.8818 202.489C16.8818 202.489 20.4206 199.783 22.5022 200.616L18.7553 171.681L13.5513 165.437Z" fill="#4864A1"/>
<path d="M26.7686 151.802C30.5625 151.802 33.6379 148.727 33.6379 144.933C33.6379 141.139 30.5625 138.064 26.7686 138.064C22.9748 138.064 19.8994 141.139 19.8994 144.933C19.8994 148.727 22.9748 151.802 26.7686 151.802Z" fill="#FFB8B8"/>
<path d="M22.2935 146.702L19.3793 154.196L23.5425 156.07L27.7056 148.576L22.2935 146.702Z" fill="#FFB8B8"/>
<path d="M24.7857 153.832C24.7857 153.832 20.6284 151.074 18.755 152.115L17.0897 156.07C17.0897 156.07 11.2612 163.355 13.551 168.767C15.8408 174.18 21.0448 180.424 21.0448 180.424L21.6693 183.339C21.6693 183.339 13.551 193.955 14.3836 201.865L4.6001 228.509C4.6001 228.509 10.0123 230.799 28.1222 231.632C46.2322 232.464 46.2322 231.632 46.2322 231.632C46.2322 231.632 43.9424 187.294 36.8649 180.216L35.8241 176.886C35.8241 176.886 37.2813 167.518 33.9507 163.563L32.8253 161.313C31.1348 157.932 28.2797 155.275 24.7857 153.832Z" fill="#2F2E41"/>
<path d="M35.1995 198.534L35.6158 204.154C35.6158 204.154 34.9913 211.44 39.1545 209.983C43.3177 208.526 39.9871 200.407 39.9871 200.407L39.3626 197.91L35.1995 198.534Z" fill="#FFB8B8"/>
<path d="M6.26523 227.469L3.97547 249.742C3.97547 249.742 1.06122 251.407 2.51835 255.986C3.97547 260.566 3.55915 262.856 3.55915 262.856L5.01627 262.439L5.64076 256.819C5.64076 256.819 8.08664 259.941 10.2203 260.566C11.702 261 13.2339 261.333 14.2408 260.172C15.4138 258.819 14.8479 256.729 13.2264 255.97C13.0624 255.893 12.8924 255.829 12.7182 255.778C11.2611 255.362 9.80397 249.742 9.80397 249.742L12.3019 239.542L16.0488 228.301L6.26523 227.469Z" fill="#2F2E41"/>
<path d="M34.5754 227.469L32.2857 249.742C32.2857 249.742 29.3714 251.407 30.8286 255.986C32.2857 260.566 31.8694 262.856 31.8694 262.856L33.3265 262.439L33.951 256.819C33.951 256.819 36.3969 259.941 38.5305 260.566C40.0122 261 41.5441 261.333 42.551 260.172C43.724 258.819 43.1581 256.729 41.5366 255.97C41.3726 255.893 41.2027 255.829 41.0284 255.778C39.5713 255.362 38.1142 249.742 38.1142 249.742L40.6121 239.542L44.359 228.301L34.5754 227.469Z" fill="#2F2E41"/>
<path opacity="0.4" d="M25.8318 157.735C25.8318 157.735 20.836 160.649 22.2931 167.31C23.7502 173.971 33.9501 202.489 33.9501 202.489C34.841 201.622 35.9485 201.01 37.1569 200.717C38.3653 200.424 39.6302 200.461 40.8194 200.824L31.4521 164.812C31.4521 164.812 32.0766 156.694 25.8318 157.735Z" fill="black"/>
<path d="M26.6648 156.486C26.6648 156.486 21.6689 159.4 23.126 166.061C24.5831 172.722 34.783 201.24 34.783 201.24C35.6739 200.373 36.7814 199.761 37.9898 199.468C39.1982 199.175 40.4631 199.212 41.6523 199.575L32.2851 163.563C32.2851 163.563 32.9096 155.445 26.6648 156.486Z" fill="#4864A1"/>
<path d="M33.12 142.269C33.12 142.269 34.1782 134.033 25.5438 136.734C25.5438 136.734 19.3771 135.603 17.3548 143.316L15.307 151.402L16.305 150.859L16.7703 151.876L18.3874 152.285L19.0794 150.912L19.4142 152.58L32.6596 153.9C32.6596 153.9 26.7273 150.392 26.6332 144.104L27.7632 145.298L33.12 142.269Z" fill="#2F2E41"/>
<path d="M18.4428 140.145C20.2822 140.145 21.7733 138.654 21.7733 136.815C21.7733 134.975 20.2822 133.484 18.4428 133.484C16.6034 133.484 15.1122 134.975 15.1122 136.815C15.1122 138.654 16.6034 140.145 18.4428 140.145Z" fill="#2F2E41"/>
<path d="M21.8745 135.999C21.8198 135.154 21.445 134.362 20.8265 133.784C20.208 133.205 19.3923 132.884 18.5455 132.886C18.6143 132.878 18.6825 132.867 18.7526 132.863C19.1891 132.835 19.6268 132.893 20.0408 133.034C20.4548 133.175 20.8369 133.396 21.1654 133.685C21.4939 133.974 21.7622 134.324 21.9552 134.717C22.1482 135.109 22.2619 135.536 22.29 135.973C22.318 136.409 22.2599 136.847 22.1188 137.261C21.9776 137.675 21.7564 138.057 21.4676 138.385C21.1788 138.714 20.8281 138.982 20.4356 139.175C20.0431 139.368 19.6164 139.482 19.18 139.51C19.1098 139.515 19.0409 139.513 18.9716 139.513C19.8116 139.406 20.5795 138.984 21.1189 138.331C21.6582 137.678 21.9285 136.844 21.8745 135.999Z" fill="#2F2E41"/>
<path d="M26.7691 147.015C27.344 147.015 27.8099 146.362 27.8099 145.557C27.8099 144.753 27.344 144.1 26.7691 144.1C26.1943 144.1 25.7283 144.753 25.7283 145.557C25.7283 146.362 26.1943 147.015 26.7691 147.015Z" fill="#FFB8B8"/>
<path d="M289.247 159.803L290.586 160.472C290.586 160.472 297.837 178.658 295.383 183.009C292.929 187.36 285.23 195.504 285.23 195.504L283.78 191.377L289.712 178.516L289.247 159.803Z" fill="#1A3D8A"/>
<path opacity="0.1" d="M289.247 159.803L290.586 160.472C290.586 160.472 297.837 178.658 295.383 183.009C292.929 187.36 285.23 195.504 285.23 195.504L283.78 191.377L289.712 178.516L289.247 159.803Z" fill="black"/>
<path d="M287.796 250.73C287.796 250.73 289.693 255.081 288.689 255.416C287.685 255.751 286.457 255.751 285.23 255.751C284.003 255.751 282.553 255.304 282.329 254.858C282.106 254.412 283.222 251.511 283.222 251.511L287.796 250.73Z" fill="#1A3D8A"/>
<path d="M262.247 252.962C262.247 252.962 263.474 256.867 262.917 257.09C262.359 257.313 260.574 258.317 259.57 257.982C258.565 257.648 257.003 256.867 256.669 256.532C256.334 256.197 256.669 254.412 256.669 254.412L258.231 252.181L262.247 252.962Z" fill="#1A3D8A"/>
<path d="M284.225 194.947L285.825 195.505C285.825 195.505 286.234 199.298 285.787 200.637C285.341 201.976 284.337 211.682 284.895 213.69C285.453 215.698 285.118 218.934 285.118 218.934C285.118 218.934 288.465 229.867 287.796 232.21C287.126 234.553 287.238 237.9 287.907 239.574C288.577 241.247 289.134 241.917 288.8 243.256C288.465 244.594 287.796 245.264 288.465 246.379C289.134 247.495 290.473 247.83 289.804 248.834C289.134 249.838 288.465 250.619 288.688 251.288C288.911 251.958 282.775 253.185 282.217 252.181C282.217 252.181 284.002 250.619 282.217 249.726C280.432 248.834 280.99 245.487 280.99 245.487C280.99 245.487 277.866 232.657 277.978 231.653C278.089 230.648 273.069 215.029 273.069 215.029C273.069 215.029 265.705 237.342 265.259 238.347C264.813 239.351 265.817 241.805 265.259 242.475C264.701 243.144 265.482 244.817 264.701 245.487C263.92 246.156 266.04 248.611 264.701 249.503C263.362 250.396 262.693 253.185 262.805 253.743C262.916 254.301 257.226 253.631 257.226 252.85C257.226 252.069 257.338 251.4 256.78 250.061C256.222 248.722 255.887 247.83 256.334 247.384C256.78 246.937 257.115 246.379 256.668 244.817C256.222 243.256 257.338 238.458 257.003 237.566C256.668 236.673 256.78 230.648 256.78 230.648C256.78 230.648 257.896 221.835 257.561 220.384C257.226 218.934 257.561 218.599 257.672 218.041C257.784 217.483 258.453 211.459 258.9 210.566C259.346 209.674 259.904 194.389 262.47 193.608C265.036 192.827 284.225 194.947 284.225 194.947Z" fill="#2F2E41"/>
<path d="M285.118 254.747C285.118 254.747 289.134 254.077 289.357 254.747C289.581 255.416 290.25 260.66 288.688 260.771C287.126 260.883 284.449 261.218 284.002 260.214C283.556 259.209 281.436 258.54 281.436 258.54C281.436 258.54 278.312 257.647 278.312 256.643C278.312 255.639 278.424 254.077 278.982 253.966C279.54 253.854 281.771 252.627 281.771 252.181C281.771 251.734 285.118 254.747 285.118 254.747Z" fill="#2F2E41"/>
<path d="M260.016 256.532C260.016 256.532 262.917 255.639 263.586 256.197C264.255 256.755 265.148 262.891 263.586 262.78C262.024 262.668 257.896 263.338 257.673 262.445C257.45 261.552 254.437 261.329 254.437 261.329C254.437 261.329 251.202 259.767 251.425 258.094C251.648 256.42 251.983 255.863 253.322 255.751C254.661 255.639 255.665 254.077 255.776 253.966C255.888 253.854 256.871 253.039 256.993 253.949C257.115 254.858 258.565 256.867 260.016 256.532Z" fill="#2F2E41"/>
<path d="M269.164 148.423C272.923 148.423 275.97 145.376 275.97 141.617C275.97 137.859 272.923 134.812 269.164 134.812C265.406 134.812 262.359 137.859 262.359 141.617C262.359 145.376 265.406 148.423 269.164 148.423Z" fill="#FFB8B8"/>
<path d="M275.077 143.18C275.077 143.18 275.524 150.655 277.197 151.324C278.871 151.993 268.718 151.993 268.718 151.993C268.718 151.993 268.607 147.308 267.156 146.192C265.706 145.076 275.077 143.18 275.077 143.18Z" fill="#FFB8B8"/>
<path d="M277.755 149.65C277.755 149.65 270.838 147.084 268.383 151.101C268.383 151.101 260.573 154.782 260.016 157.014C259.458 159.245 264.701 175.98 264.701 175.98C264.701 175.98 264.701 189.814 263.586 191.265C262.47 192.715 260.35 194.277 261.801 194.612C263.251 194.947 286.011 197.401 285.899 195.951C285.788 194.5 284.337 193.273 285.899 192.381C287.461 191.488 286.122 190.484 287.126 187.583C288.13 184.682 290.585 160.695 290.585 160.695C290.585 160.695 288.911 157.683 288.577 157.348C288.242 157.014 277.755 149.65 277.755 149.65Z" fill="#1A3D8A"/>
<path d="M257.785 198.517C257.785 198.517 253.433 208.335 257.227 209.674C261.02 211.012 260.797 199.298 260.797 199.298L257.785 198.517Z" fill="#FFB8B8"/>
<path d="M272.429 142.883C272.034 142.093 271.444 141.181 270.561 141.229C270.115 141.253 269.731 141.531 269.333 141.735C268.936 141.938 268.426 142.065 268.063 141.805C267.531 141.425 267.696 140.525 267.22 140.077C266.701 139.587 265.657 139.86 265.322 139.231C265.143 138.894 265.288 138.477 265.21 138.105C264.667 138.151 264.12 138.087 263.602 137.918C263.098 137.714 262.662 137.24 262.676 136.697C262.691 136.512 262.743 136.332 262.829 136.167C262.914 136.002 263.032 135.856 263.175 135.737C263.86 135.114 264.852 134.994 265.699 134.616C266.372 134.315 266.958 133.846 267.62 133.52C268.759 132.96 270.073 132.851 271.339 132.948C273.259 133.095 275.2 133.732 276.592 135.062C277.984 136.391 278.72 138.489 278.12 140.318C277.78 141.355 277.059 142.226 276.657 143.24C276.41 143.934 276.239 144.652 276.147 145.383L275.865 147.116C275.909 146.846 275.316 146.17 275.122 146.009C274.699 145.658 274.082 145.777 273.689 145.452C273.107 144.971 272.771 143.569 272.429 142.883Z" fill="#2F2E41"/>
<path opacity="0.1" d="M262.582 156.233L260.797 157.349C260.797 157.349 257.896 174.865 258.231 177.319C258.566 179.774 256.892 193.608 257.45 194.724C258.008 195.839 258.231 196.062 258.231 196.732C258.231 197.401 256.669 199.856 257.673 200.302C258.677 200.748 262.359 201.529 262.359 200.302C262.359 199.075 261.69 197.401 262.917 196.62C264.144 195.839 265.037 190.819 265.037 190.819C265.037 190.819 265.594 185.687 266.152 184.683C266.71 183.678 267.491 179.997 267.491 178.435C267.491 176.873 268.83 170.514 268.049 167.278C267.268 164.043 267.045 155.34 262.582 156.233Z" fill="black"/>
<path d="M261.801 155.898L260.016 157.014C260.016 157.014 257.115 174.53 257.45 176.984C257.784 179.439 256.111 193.273 256.669 194.389C257.227 195.505 257.45 195.728 257.45 196.397C257.45 197.067 255.888 199.521 256.892 199.967C257.896 200.414 261.578 201.195 261.578 199.967C261.578 198.74 260.908 197.067 262.135 196.286C263.363 195.505 264.255 190.484 264.255 190.484C264.255 190.484 264.813 185.352 265.371 184.348C265.929 183.344 266.71 179.662 266.71 178.1C266.71 176.538 268.049 170.179 267.268 166.943C266.487 163.708 266.263 155.006 261.801 155.898Z" fill="#1A3D8A"/>
<path d="M166.149 98.144C166.149 98.1639 166.148 98.1837 166.148 98.2038C166.147 98.5718 166.22 98.9361 166.361 99.275C166.503 99.6139 166.71 99.9205 166.97 100.177C167.011 100.265 167.056 100.35 167.106 100.434C166.917 101.008 166.823 101.611 166.826 102.217C166.826 104.306 167.889 106 169.2 106C170.511 106 171.574 104.306 171.574 102.217C171.575 101.764 171.523 101.313 171.419 100.873C171.826 100.426 172.075 99.8547 172.128 99.2488C172.181 98.6428 172.034 98.0362 171.711 97.5239C171.981 97.7635 172.296 97.9463 172.637 98.0616C172.978 98.1769 173.337 98.2224 173.696 98.1955C174.054 98.1686 174.403 98.0698 174.723 97.9049C175.044 97.7399 175.328 97.5121 175.561 97.2347C175.794 96.9572 175.97 96.6356 176.079 96.2886C176.189 95.9416 176.229 95.576 176.198 95.2131C176.166 94.8501 176.065 94.4971 175.898 94.1745C175.731 93.8518 175.503 93.566 175.226 93.3335C175.691 93.1594 176.101 92.8593 176.409 92.4659C176.718 92.0725 176.915 91.6008 176.978 91.102C177.041 90.6032 176.968 90.0964 176.767 89.6366C176.566 89.1769 176.245 88.7818 175.838 88.4942C175.431 88.2067 174.955 88.0377 174.46 88.0056C173.965 87.9735 173.471 88.0796 173.031 88.3123C172.592 88.5449 172.224 88.8953 171.967 89.3254C171.71 89.7554 171.574 90.2487 171.574 90.7516C171.574 90.7919 171.575 90.8319 171.577 90.8717C171.204 90.7563 170.811 90.7235 170.425 90.7757C170.039 90.8278 169.669 90.9635 169.339 91.1738C169.009 91.384 168.728 91.6637 168.514 91.9939C168.3 92.3241 168.159 92.6972 168.1 93.0876C167.762 92.8835 167.384 92.7564 166.992 92.7153C166.601 92.6742 166.205 92.7201 165.833 92.8497C165.46 92.9793 165.12 93.1895 164.836 93.4658C164.552 93.742 164.33 94.0777 164.187 94.4496C164.043 94.8214 163.981 95.2205 164.005 95.619C164.029 96.0176 164.138 96.4061 164.325 96.7576C164.511 97.1091 164.771 97.4152 165.086 97.6546C165.401 97.894 165.764 98.061 166.149 98.144Z" fill="#E2E2E2"/>
<path d="M85.638 166.975C85.638 166.975 85.7516 164.594 88.081 164.871L85.638 166.975Z" fill="#3F3D56"/>
<path d="M84.9793 164.71C85.6232 164.71 86.1452 164.188 86.1452 163.544C86.1452 162.9 85.6232 162.378 84.9793 162.378C84.3354 162.378 83.8135 162.9 83.8135 163.544C83.8135 164.188 84.3354 164.71 84.9793 164.71Z" fill="#00BF96"/>
<path d="M85.1199 165.507H84.7908V167.81H85.1199V165.507Z" fill="#3F3D56"/>
<path d="M110.179 166.975C110.179 166.975 110.293 164.594 112.622 164.871L110.179 166.975Z" fill="#3F3D56"/>
<path d="M109.52 164.71C110.164 164.71 110.686 164.188 110.686 163.544C110.686 162.9 110.164 162.378 109.52 162.378C108.876 162.378 108.354 162.9 108.354 163.544C108.354 164.188 108.876 164.71 109.52 164.71Z" fill="#00BF96"/>
<path d="M109.661 165.507H109.332V167.81H109.661V165.507Z" fill="#3F3D56"/>
<path d="M165.661 166.975C165.661 166.975 165.775 164.594 168.104 164.871L165.661 166.975Z" fill="#3F3D56"/>
<path d="M165.003 164.71C165.647 164.71 166.169 164.188 166.169 163.544C166.169 162.9 165.647 162.378 165.003 162.378C164.359 162.378 163.837 162.9 163.837 163.544C163.837 164.188 164.359 164.71 165.003 164.71Z" fill="#00BF96"/>
<path d="M165.143 165.507H164.814V167.81H165.143V165.507Z" fill="#3F3D56"/>
<path d="M177.399 164.841C177.399 164.841 177.512 162.46 179.842 162.737L177.399 164.841Z" fill="#3F3D56"/>
<path d="M176.74 162.576C177.384 162.576 177.906 162.054 177.906 161.41C177.906 160.766 177.384 160.244 176.74 160.244C176.096 160.244 175.574 160.766 175.574 161.41C175.574 162.054 176.096 162.576 176.74 162.576Z" fill="#00BF96"/>
<path d="M176.881 163.373H176.552V165.677H176.881V163.373Z" fill="#3F3D56"/>
<path d="M212.61 166.975C212.61 166.975 212.723 164.594 215.053 164.871L212.61 166.975Z" fill="#3F3D56"/>
<path d="M211.951 164.71C212.595 164.71 213.117 164.188 213.117 163.544C213.117 162.9 212.595 162.378 211.951 162.378C211.307 162.378 210.785 162.9 210.785 163.544C210.785 164.188 211.307 164.71 211.951 164.71Z" fill="#00BF96"/>
<path d="M212.092 165.507H211.763V167.81H212.092V165.507Z" fill="#3F3D56"/>
<path d="M225.413 163.774C225.413 163.774 225.527 161.393 227.856 161.67L225.413 163.774Z" fill="#3F3D56"/>
<path d="M224.755 161.509C225.399 161.509 225.921 160.987 225.921 160.343C225.921 159.699 225.399 159.177 224.755 159.177C224.111 159.177 223.589 159.699 223.589 160.343C223.589 160.987 224.111 161.509 224.755 161.509Z" fill="#00BF96"/>
<path d="M224.895 162.306H224.566V164.609H224.895V162.306Z" fill="#3F3D56"/>
<path d="M207 106.912C224.121 106.912 238 93.2766 238 76.4561C238 59.6357 224.121 46 207 46C189.879 46 176 59.6357 176 76.4561C176 93.2766 189.879 106.912 207 106.912Z" fill="#00BF96"/>
<path opacity="0.2" d="M230.391 55.7894C233.192 62.4874 233.572 69.9852 231.463 76.9432C229.354 83.9012 224.893 89.8658 218.878 93.7714C212.862 97.6769 205.684 99.2688 198.627 98.2625C191.569 97.2563 185.091 93.7175 180.351 88.2786C182.062 92.3708 184.623 96.0337 187.857 99.0137C191.09 101.994 194.919 104.219 199.077 105.537C203.236 106.854 207.625 107.231 211.94 106.642C216.256 106.054 220.394 104.513 224.069 102.127C227.744 99.7406 230.868 96.5664 233.224 92.8238C235.579 89.0813 237.111 84.8599 237.712 80.4523C238.314 76.0446 237.97 71.556 236.706 67.2974C235.442 63.0389 233.287 59.1122 230.391 55.7894Z" fill="black"/>
<path d="M207 75.3684H207.086L208.632 164.561H205.368L207 75.3684Z" fill="#3F3D56"/>
<path d="M213.189 124.303L212.477 122.95L207.368 125.64L208.08 126.992L213.189 124.303Z" fill="#3F3D56"/>
</svg>
