<svg width="188" height="180" viewBox="0 0 188 180" fill="none" xmlns="http://www.w3.org/2000/svg">
<g filter="url(#filter0_d_66_706)">
<rect x="40" y="40" width="108" height="100" rx="15" fill="white"/>
</g>
<path d="M69.8863 113.497C69.4418 114.266 70.0213 115.254 70.9021 115.254C72.523 115.245 74.1439 115.234 75.7649 115.225L78.094 119.399C78.3004 119.767 78.6891 119.996 79.1111 120H79.1194C79.5387 120 79.9269 119.776 80.1356 119.413L87.1151 107.319C87.93 108.396 88.9284 109.507 90.4207 109.284C91.1769 109.171 91.8434 108.75 92.4765 108.348C92.904 108.076 93.4808 107.567 94.0169 107.604C94.5968 107.643 95.2446 108.253 95.7229 108.545C96.3373 108.921 97.0001 109.273 97.7344 109.308C99.109 109.374 100.014 108.32 100.772 107.319L107.752 119.413C108.215 120.217 109.433 120.169 109.828 119.328L111.816 115.123L116.954 115.255C117.849 115.28 118.45 114.275 118.001 113.498L111.202 101.721C112.385 101.473 113.349 100.812 113.644 99.5888C113.896 98.5437 113.503 97.456 113.725 96.4297C113.917 95.5444 115.361 95.2084 116.055 94.763C117.028 94.1386 117.682 93.2359 117.572 92.0283C117.509 91.3444 117.225 90.7059 116.965 90.0787C116.803 89.6869 116.483 89.1495 116.526 88.71C116.607 87.8952 117.853 87.0735 118.309 86.4198C118.928 85.5318 119.134 84.505 118.667 83.5011C118.197 82.4917 117.166 81.9076 116.66 80.9527C116.261 80.2016 117.04 79.1382 117.291 78.4268C117.671 77.3488 117.74 76.2121 116.952 75.2957C116.334 74.577 115.429 74.2172 114.617 73.7723C114.296 73.596 113.896 73.423 113.757 73.0627C113.606 72.6732 113.71 72.1142 113.728 71.7087C113.77 70.7268 113.83 69.6611 113.253 68.806C112.719 68.014 111.828 67.7037 110.928 67.5416C110.188 67.4084 108.95 67.5389 108.508 66.8339C108.066 66.1285 108.002 65.1828 107.649 64.4256C107.164 63.387 106.318 62.7044 105.142 62.6623C104.175 62.628 103.277 63.0111 102.329 63.11C101.36 63.2112 100.914 62.1437 100.376 61.4863C99.8277 60.8175 99.1722 60.1913 98.286 60.0371C97.0843 59.8283 96.0599 60.5667 95.099 61.1691C94.2467 61.7038 93.8992 61.8434 93.0111 61.3078C92.0476 60.7274 91.0748 59.9327 89.8805 60.0046C88.9613 60.0595 88.2408 60.6349 87.6617 61.3055C87.1541 61.8933 86.6299 63.0958 85.7716 63.1306C84.8565 63.1677 83.9383 62.6944 83.0154 62.6642C80.424 62.5799 80.3018 64.8431 79.4664 66.6412C79.0809 67.4707 78.1109 67.3695 77.3043 67.4876C76.382 67.6222 75.4174 67.8506 74.7908 68.5977C74.1165 69.402 74.1078 70.4732 74.1476 71.4656C74.1856 72.4063 74.3715 73.1277 73.4834 73.6537C72.6786 74.1307 71.7682 74.4511 71.0943 75.1259C70.2598 75.9617 70.1683 77.0567 70.5015 78.1471C70.7217 78.8676 71.5484 80.0303 71.3154 80.8031C71.0847 81.568 70.036 82.2413 69.5796 82.8955C68.2264 84.835 69.4958 86.3434 70.8036 87.8343C71.0412 88.1044 71.3539 88.4038 71.3621 88.7828C71.3717 89.2049 71.0788 89.7002 70.9222 90.0787C70.5148 91.0638 70.0634 92.1359 70.4493 93.2043C70.8133 94.2018 71.753 94.7525 72.6452 95.219C73.4852 95.6579 74.1714 95.8498 74.1838 96.8774C74.1961 97.9001 73.9814 98.9575 74.3518 99.9449C74.7386 100.975 75.645 101.504 76.6822 101.721L69.8863 113.497ZM102.895 106.306C104.378 106.62 106.059 107.042 107.168 105.683C107.612 105.14 107.839 104.456 108.048 103.797C108.181 103.376 108.321 102.41 108.757 102.176L114.923 112.858C113.643 112.825 112.362 112.782 111.082 112.759C110.629 112.759 110.214 113.02 110.021 113.431L108.664 116.302L102.895 106.306ZM87.5985 104.391C86.4761 103.568 85.16 103.876 83.9067 104.146C83.5798 104.216 82.9266 104.454 82.614 104.276C82.3178 104.107 82.202 103.477 82.1049 103.177C81.774 102.157 81.5039 101.039 80.6094 100.352C79.731 99.6767 78.5856 99.6606 77.5392 99.4917C77.146 99.4281 76.7028 99.4212 76.5248 99.0417C76.3531 98.6746 76.4927 97.9893 76.5092 97.598C76.5577 96.4462 76.5371 95.2624 75.6793 94.3858C74.9157 93.6053 73.8386 93.349 72.9835 92.7132C72.2236 92.1478 73.1488 90.9045 73.3987 90.2078C73.8716 88.8895 73.7484 87.7537 72.8737 86.6482C72.4502 86.1136 71.092 85.1541 71.3919 84.4075C71.7686 83.4677 72.8933 82.841 73.3712 81.9223C74.0217 80.673 73.5443 79.4449 73.0471 78.2382C72.9153 77.9178 72.5464 77.3222 72.6498 76.9647C72.7528 76.6067 73.3461 76.3783 73.6427 76.2204C74.5486 75.7384 75.5745 75.2952 76.1123 74.3664C76.7125 73.3305 76.4863 72.1028 76.4804 70.968C76.4776 70.4709 76.4254 70.1417 76.9098 69.9527C77.335 69.7865 77.8505 69.7824 78.2982 69.7215C79.5002 69.5585 80.6456 69.255 81.3203 68.1619C81.8536 67.2981 81.8403 66.0287 82.4501 65.2441C82.9207 64.6385 84.4093 65.3068 85.0543 65.4048C86.374 65.6053 87.4159 65.2501 88.3072 64.2622C88.7466 63.7747 89.458 62.3085 90.184 62.3776C90.5978 62.417 91.0785 62.8596 91.42 63.0761C91.8956 63.3778 92.3767 63.6841 92.9104 63.8745C94.1762 64.3254 95.2922 63.8205 96.3615 63.1444C96.7145 62.9214 97.2734 62.417 97.7037 62.3771C98.0887 62.3414 98.2896 62.6486 98.5299 62.9361C99.2084 63.7495 99.7705 64.7452 100.769 65.2125C101.949 65.7651 103.211 65.2972 104.407 65.0807C104.816 65.007 105.166 64.8976 105.437 65.2441C105.697 65.5765 105.779 66.1303 105.904 66.5291C106.245 67.6149 106.65 68.6879 107.723 69.2399C108.749 69.7673 109.961 69.5059 110.978 69.9513C111.764 70.296 111.348 71.759 111.357 72.4827C111.373 73.6876 111.75 74.6699 112.753 75.3818C113.22 75.7132 113.741 75.9526 114.245 76.2204C114.522 76.3678 115.119 76.5907 115.232 76.9121C115.35 77.249 115.003 77.845 114.876 78.1521C114.637 78.7335 114.367 79.313 114.248 79.9342C113.989 81.2865 114.641 82.2821 115.515 83.2416C115.827 83.5849 116.322 83.9726 116.497 84.4075C116.651 84.7943 116.441 85.0136 116.191 85.3226C115.478 86.2038 114.511 86.949 114.245 88.1071C113.953 89.377 114.672 90.5168 115.076 91.6685C115.225 92.0952 115.338 92.3414 114.986 92.6541C114.624 92.9764 114.089 93.1695 113.664 93.3948C112.684 93.9143 111.781 94.5428 111.485 95.6731C111.321 96.2997 111.351 96.958 111.378 97.5984C111.395 98.0163 111.509 98.5638 111.378 98.968C111.176 99.592 109.724 99.6588 109.137 99.6588C107.777 99.8762 106.793 100.497 106.249 101.789C105.973 102.442 105.815 104.2 105.021 104.313C104.58 104.376 104.007 104.149 103.574 104.054C102.982 103.926 102.375 103.801 101.766 103.849C100.373 103.959 99.597 105.008 98.8078 106.028C98.562 106.345 98.2178 106.951 97.7746 106.962C97.3965 106.972 96.871 106.496 96.5735 106.308C95.43 105.585 94.2782 104.96 92.91 105.442C92.2787 105.664 91.7257 106.049 91.165 106.403C90.8871 106.579 90.3644 107.026 90.0073 106.97C89.593 106.905 89.1893 106.168 88.9595 105.868C88.5498 105.334 88.1428 104.798 87.5985 104.391C87.6173 104.405 87.3733 104.225 87.5985 104.391ZM72.9405 112.897L79.129 102.175C79.2851 102.278 79.3519 102.432 79.4339 102.598C79.8092 103.358 79.9086 104.231 80.2899 104.994C81.2809 106.976 83.1445 106.697 84.9925 106.306L79.1368 116.451L77.4778 113.477C77.27 113.106 76.8773 112.876 76.4525 112.876H76.4451L72.9405 112.897Z" fill="#1A3D8A"/>
<path d="M78.4471 84.6576C78.4471 76.1112 85.3987 69.1582 93.9438 69.1582C102.489 69.1582 109.441 76.1112 109.441 84.6576C109.441 93.2041 102.489 100.158 93.9438 100.158C85.3987 100.158 78.4471 93.2041 78.4471 84.6576V84.6576ZM80.7936 84.6576C80.7936 91.9118 86.6928 97.8138 93.9438 97.8138C101.195 97.8138 107.094 91.9118 107.094 84.6576C107.094 77.4034 101.195 71.502 93.9438 71.502C86.6928 71.502 80.7936 77.4034 80.7936 84.6576V84.6576Z" fill="#1A3D8A"/>
<path d="M98.7549 89.273H97.1056V76.6513C97.1056 76.1285 96.6802 75.7031 96.1574 75.7031H93.6762C93.4536 75.7031 93.237 75.7819 93.0667 75.925L88.5588 79.708C88.1654 80.0381 88.105 80.6136 88.4212 81.0181L89.8997 82.9102C90.0564 83.1108 90.2915 83.2416 90.5446 83.269C90.7979 83.2965 91.0553 83.2191 91.2514 83.0567L92.2786 82.2062V89.2729H90.1963V89.273C89.6734 89.273 89.2481 89.6985 89.2481 90.2212V92.4714C89.2481 92.9943 89.6734 93.4196 90.1963 93.4196H98.7549C99.2778 93.4196 99.7031 92.9942 99.7031 92.4714V90.2212C99.7031 89.6984 99.2778 89.273 98.7549 89.273ZM98.2316 91.9482H90.7198V90.7448H92.8022C93.325 90.7448 93.7504 90.3194 93.7504 89.7966V81.0934C93.7503 80.7221 93.5417 80.3933 93.2057 80.2354C92.8697 80.0773 92.4835 80.1261 92.1974 80.363L90.7277 81.5799L89.892 80.5105L93.8667 77.1749H95.634V89.7966C95.634 90.3194 96.0594 90.7448 96.5822 90.7448H98.2316V91.9482Z" fill="#00BF96"/>
<defs>
<filter id="filter0_d_66_706" x="0" y="0" width="188" height="180" filterUnits="userSpaceOnUse" color-interpolation-filters="sRGB">
<feFlood flood-opacity="0" result="BackgroundImageFix"/>
<feColorMatrix in="SourceAlpha" type="matrix" values="0 0 0 0 0 0 0 0 0 0 0 0 0 0 0 0 0 0 127 0" result="hardAlpha"/>
<feOffset/>
<feGaussianBlur stdDeviation="20"/>
<feColorMatrix type="matrix" values="0 0 0 0 0.101961 0 0 0 0 0.239216 0 0 0 0 0.541176 0 0 0 0.2 0"/>
<feBlend mode="normal" in2="BackgroundImageFix" result="effect1_dropShadow_66_706"/>
<feBlend mode="normal" in="SourceGraphic" in2="effect1_dropShadow_66_706" result="shape"/>
</filter>
</defs>
</svg>
